<?xml version="1.0" standalone="no"?>
<!DOCTYPE svg PUBLIC "-//W3C//DTD SVG 20010904//EN"
 "http://www.w3.org/TR/2001/REC-SVG-20010904/DTD/svg10.dtd">
<svg version="1.0" xmlns="http://www.w3.org/2000/svg"
 width="1200.000000pt" height="1600.000000pt" viewBox="0 0 1200.000000 1600.000000"
 preserveAspectRatio="xMidYMid meet">

<g transform="translate(0.000000,1600.000000) scale(0.100000,-0.100000)"
fill="#000000" stroke="none">
<path d="M707 15965 c-9 -19 -23 -35 -31 -35 -8 0 -19 -6 -23 -14 -15 -25 -67
-45 -106 -39 -44 6 -55 -10 -38 -57 12 -35 5 -60 -15 -60 -8 0 -14 -6 -14 -12
0 -8 13 -13 37 -12 29 1 44 -6 70 -31 18 -18 33 -42 33 -54 0 -13 9 -34 20
-48 11 -14 22 -41 26 -62 4 -20 12 -43 18 -51 7 -8 17 -26 24 -40 7 -14 24
-30 38 -37 22 -10 30 -9 56 10 28 21 30 21 56 5 15 -10 52 -29 82 -43 72 -34
97 -59 105 -105 7 -44 -8 -81 -50 -120 -15 -14 -33 -41 -41 -60 -25 -60 -65
-109 -113 -139 -25 -16 -58 -41 -73 -55 -15 -14 -31 -26 -35 -26 -4 0 -21 -27
-37 -60 -36 -74 -50 -86 -105 -93 -51 -6 -94 11 -125 50 -16 21 -24 24 -52 18
-19 -3 -42 -1 -53 4 -15 8 -27 5 -55 -14 -96 -65 -186 18 -132 122 14 28 19
30 57 27 38 -3 41 -2 35 19 -27 100 -13 175 41 208 32 20 34 25 33 68 -2 25
-2 53 -1 61 2 25 75 100 98 100 11 0 26 7 34 16 11 14 7 21 -28 54 -23 20 -48
52 -57 69 -9 17 -22 32 -29 32 -65 6 -83 13 -120 44 -22 19 -49 35 -59 35 -10
0 -18 5 -18 10 0 6 -3 10 -7 10 -5 0 -8 -15 -9 -33 0 -17 -9 -58 -19 -91 l-19
-59 27 -19 c16 -12 27 -29 27 -44 0 -13 4 -24 9 -24 4 0 11 -17 13 -37 3 -21
16 -55 28 -76 29 -49 34 -100 15 -158 -22 -66 -52 -90 -122 -98 -57 -7 -103
-27 -103 -45 0 -5 12 -25 28 -45 26 -34 27 -40 24 -130 -2 -55 -9 -106 -17
-121 -8 -15 -11 -37 -8 -48 3 -15 0 -24 -11 -28 -13 -5 -16 -20 -15 -73 0 -65
0 -66 17 -41 39 57 45 59 103 44 29 -8 60 -14 68 -14 24 0 112 -73 106 -89
-12 -31 16 -76 68 -111 l52 -35 9 -83 9 -83 32 5 c20 3 39 0 51 -9 10 -8 36
-15 57 -15 23 0 52 -10 75 -25 49 -32 142 -57 159 -43 16 13 17 60 1 76 -6 6
-12 34 -12 61 -1 58 25 93 83 112 59 19 101 56 101 89 0 16 -6 35 -14 43 -28
27 -47 90 -41 130 14 81 84 120 198 110 32 -4 59 0 83 12 31 15 42 15 81 5 52
-15 67 -38 60 -94 -7 -48 -47 -86 -119 -113 -27 -9 -50 -25 -53 -34 -3 -9 -17
-29 -30 -43 -14 -15 -25 -30 -25 -35 0 -4 14 -22 31 -39 17 -18 43 -54 58 -80
14 -27 38 -66 53 -88 15 -21 33 -60 40 -87 11 -42 10 -51 -7 -83 -11 -20 -36
-55 -57 -79 -30 -34 -38 -51 -38 -83 0 -49 -24 -120 -48 -138 -9 -8 -36 -23
-59 -33 -49 -23 -101 -16 -137 18 -12 12 -29 21 -37 21 -8 0 -22 12 -31 28
-35 59 -77 91 -139 105 -14 4 -44 27 -67 51 -45 48 -68 51 -78 12 -3 -12 0
-34 5 -50 6 -15 11 -66 11 -112 l0 -85 50 -48 c28 -26 50 -51 50 -56 0 -4 13
-24 28 -44 55 -70 59 -94 36 -233 -6 -36 -8 -38 -41 -38 -80 0 -138 39 -163
110 -18 49 -43 100 -50 100 -13 0 -52 108 -46 128 9 26 -2 49 -25 55 -36 10
-49 66 -47 196 3 100 0 122 -14 137 -9 11 -18 37 -20 59 l-3 40 -70 1 c-38 0
-87 4 -108 9 -30 6 -37 5 -37 -8 0 -8 11 -18 24 -21 13 -3 38 -19 56 -36 30
-28 32 -34 28 -84 -3 -42 -13 -64 -42 -105 -21 -28 -43 -51 -49 -51 -7 0 -23
-17 -37 -37 -37 -54 -88 -102 -116 -109 l-24 -6 0 -323 c0 -273 2 -327 16
-353 17 -36 22 -84 10 -122 -6 -24 -4 -26 41 -39 64 -17 74 -21 175 -71 95
-47 111 -59 103 -83 -7 -17 37 -52 80 -63 15 -4 45 -24 66 -45 37 -37 39 -42
39 -103 0 -55 -4 -69 -26 -95 -20 -24 -26 -45 -31 -99 -3 -38 -2 -72 3 -75 5
-3 34 1 64 9 74 19 119 18 157 -5 17 -11 49 -23 70 -26 44 -8 154 -58 198 -91
53 -39 179 -101 219 -109 42 -7 81 -28 109 -60 16 -16 18 -30 13 -75 -5 -48
-11 -60 -47 -92 -44 -41 -65 -47 -123 -37 -55 10 -120 -22 -142 -70 -9 -20
-34 -57 -55 -82 -44 -53 -44 -53 -26 -71 8 -7 18 -31 23 -53 14 -61 53 -75
217 -83 157 -8 123 -8 572 1 198 4 375 11 394 17 55 16 79 44 75 91 -3 36 0
42 26 57 17 9 30 20 30 23 0 3 12 19 26 34 19 20 41 31 76 36 28 5 58 15 67
23 29 26 100 46 141 40 35 -6 102 15 255 81 28 12 81 20 183 30 22 2 53 11 67
21 l27 18 -22 8 c-33 12 -49 38 -50 79 0 21 -9 47 -21 63 -13 16 -16 26 -8 26
7 0 10 3 7 6 -4 3 -21 -2 -38 -11 -43 -22 -70 -8 -105 56 -14 27 -32 52 -39
56 -16 10 -28 53 -14 53 5 0 6 5 3 10 -4 6 -18 2 -36 -11 -61 -43 -121 -6
-138 84 -7 39 -5 46 19 70 39 39 77 44 121 14 47 -32 79 -20 91 35 8 38 33 70
82 102 34 22 87 18 161 -14 26 -11 50 -18 52 -16 5 5 37 167 47 236 15 116 25
301 16 324 -15 39 -41 26 -60 -30 -22 -66 -27 -75 -93 -144 -38 -39 -70 -63
-96 -71 -55 -16 -115 -80 -150 -160 -25 -59 -54 -87 -95 -95 -36 -6 -88 1
-119 18 -28 15 -57 69 -57 108 0 44 27 85 137 202 23 25 24 48 2 48 -5 0 -27
19 -49 41 -33 34 -39 46 -34 68 8 32 29 80 46 103 9 13 9 25 -1 56 -13 38 -11
57 11 114 14 39 71 54 121 33 58 -24 61 -82 6 -151 -18 -22 -29 -49 -29 -67 0
-17 2 -28 6 -25 3 3 21 2 40 -2 32 -7 36 -6 51 23 18 36 49 62 113 96 25 13
52 29 60 36 13 10 40 12 103 7 12 -2 17 -11 17 -32 0 -21 9 -39 27 -56 l26
-24 17 48 c10 27 24 59 33 73 8 13 18 41 22 63 3 21 18 64 32 95 24 51 26 68
27 191 1 147 1 146 75 260 30 45 36 50 42 34 7 -17 8 -16 9 6 l2 25 11 -26 c7
-14 17 -32 23 -40 6 -8 15 -25 19 -39 4 -14 16 -36 25 -50 10 -14 27 -52 38
-83 10 -32 21 -60 24 -63 14 -13 -6 -44 -28 -44 -33 0 -51 -33 -65 -120 -14
-94 -7 -213 16 -265 10 -22 33 -73 52 -113 18 -41 37 -92 42 -114 5 -23 14
-44 19 -47 5 -3 9 -13 9 -22 -1 -34 75 -156 86 -138 13 22 35 109 31 125 -3
12 1 26 10 33 14 11 22 10 50 -10 38 -25 38 -31 5 -33 -21 -1 -49 -46 -29 -46
6 0 10 -13 10 -29 0 -16 6 -36 13 -43 8 -7 16 -20 20 -28 3 -9 6 -10 6 -2 1
13 41 17 41 4 0 -12 -34 -42 -47 -42 -6 0 -16 -6 -22 -13 -12 -16 -1 -34 39
-61 17 -11 20 -16 8 -16 -9 0 -39 18 -67 40 -28 22 -57 40 -65 40 -18 0 -25
-19 -16 -45 18 -50 -12 -154 -67 -231 -26 -37 -37 -85 -53 -244 -7 -63 -17
-130 -23 -147 -6 -18 -8 -36 -4 -40 27 -26 206 -17 330 17 82 23 93 31 78 57
-17 33 -39 46 -92 54 -27 4 -56 15 -65 23 -8 9 -18 16 -22 16 -14 0 -32 55
-32 96 0 26 8 53 23 74 25 38 37 45 92 57 33 7 43 15 59 48 16 33 44 138 46
168 0 4 -8 7 -17 8 -10 1 -2 5 17 10 28 6 37 5 47 -9 7 -9 16 -22 20 -27 4 -6
21 -35 37 -65 16 -30 39 -69 52 -87 13 -17 24 -35 24 -40 0 -5 8 -20 18 -33
18 -26 29 -53 66 -161 16 -48 20 -73 14 -95 -5 -16 -13 -54 -19 -84 -6 -30
-14 -59 -19 -65 -4 -5 -10 -19 -13 -30 -3 -11 -3 9 0 45 5 57 4 63 -9 53 -27
-23 -119 -41 -149 -29 -21 7 -44 6 -91 -6 -114 -30 -138 -41 -138 -64 0 -12
-16 -35 -37 -53 -30 -25 -33 -31 -16 -31 16 0 19 -5 15 -32 -3 -18 -12 -43
-20 -55 -8 -13 -10 -23 -6 -23 14 0 -19 -20 -33 -20 -7 0 -13 6 -13 14 0 23
-34 76 -49 76 -11 0 -11 3 -1 15 9 10 9 15 1 15 -6 0 -11 8 -11 18 0 11 -12
22 -33 30 -49 18 -73 15 -117 -14 -68 -45 -56 -18 14 32 36 26 66 51 66 55 0
7 -130 33 -135 27 -1 -2 -6 -21 -11 -43 -6 -26 -17 -43 -31 -50 -13 -5 -25
-22 -28 -37 -4 -16 -11 -28 -17 -28 -6 0 -7 -7 -4 -15 9 -24 -22 -30 -44 -10
-17 15 -24 16 -46 7 -33 -16 -61 -15 -67 1 -4 7 -6 6 -6 -5 -1 -9 5 -19 12
-21 6 -3 -11 -6 -40 -6 -55 -1 -135 -30 -168 -61 -35 -33 -77 -42 -205 -46
-122 -4 -183 -15 -196 -35 -4 -6 21 -8 70 -3 71 6 76 6 76 -13 0 -11 -8 -27
-17 -35 -23 -19 -98 -29 -112 -15 -7 7 -16 5 -30 -7 -12 -11 -21 -14 -26 -7
-3 6 -19 11 -35 11 -22 0 -29 5 -32 23 -2 12 -9 21 -16 19 -7 -1 -30 -4 -50
-6 -45 -4 -72 -15 -72 -29 0 -7 4 -7 12 1 14 14 38 16 38 3 0 -6 -11 -22 -25
-37 -16 -18 -25 -39 -25 -60 0 -35 -13 -46 -24 -19 -8 22 -25 18 -78 -15 -28
-18 -70 -60 -105 -107 -74 -99 -80 -106 -130 -155 -24 -23 -43 -49 -43 -59 0
-22 -62 -87 -113 -118 -43 -26 -128 -122 -202 -227 -28 -38 -60 -80 -73 -94
-12 -14 -21 -33 -18 -42 2 -10 0 -18 -5 -18 -4 0 -13 -19 -19 -42 -17 -66 -30
-96 -46 -102 -8 -3 -14 -11 -14 -18 0 -14 -43 -58 -56 -58 -4 0 -18 -9 -30
-21 -12 -11 -29 -22 -38 -23 -9 -1 -22 -10 -28 -19 -16 -21 -122 -26 -180 -10
-25 7 -38 7 -38 1 0 -6 -7 -7 -17 -3 -23 10 -125 6 -137 -5 -5 -5 -14 -6 -21
-3 -16 6 -57 -15 -51 -25 9 -16 -69 -9 -111 9 -24 10 -43 16 -43 13 0 -3 -16
7 -35 22 -20 15 -34 32 -32 38 3 6 -13 22 -34 36 -22 13 -39 29 -39 36 0 7
-15 24 -32 38 -18 14 -41 32 -50 41 -10 8 -23 15 -29 15 -6 0 -18 7 -26 16
-10 10 -26 14 -43 11 -29 -6 -44 0 -52 23 -5 13 -55 32 -108 42 -21 4 -96 -56
-103 -81 -3 -14 -1 -18 9 -14 20 7 17 -3 -8 -37 -18 -25 -21 -42 -20 -106 1
-42 5 -81 10 -88 5 -6 15 -38 22 -71 16 -69 63 -161 91 -176 10 -5 19 -14 19
-20 0 -14 41 -48 58 -49 7 0 10 -4 7 -10 -3 -5 1 -10 10 -10 18 0 50 -17 78
-42 11 -9 33 -20 48 -23 16 -4 29 -12 29 -18 0 -7 11 -29 25 -49 14 -20 25
-44 25 -53 0 -9 4 -14 9 -11 5 3 12 -1 15 -10 8 -22 8 -26 -4 -19 -5 3 -2 -11
6 -31 8 -20 13 -42 10 -50 -3 -8 0 -11 10 -7 8 3 15 -1 15 -8 1 -8 2 -19 3
-26 0 -6 13 -20 27 -32 46 -36 101 -171 69 -171 -5 0 -12 -17 -15 -37 -4 -21
-9 -45 -12 -53 -4 -8 -5 -20 -5 -25 1 -6 -11 -25 -27 -43 -29 -31 -33 -32
-106 -32 -82 0 -96 -7 -143 -76 -13 -19 -33 -34 -51 -37 -45 -9 -114 -61 -193
-147 -73 -78 -139 -180 -118 -180 6 0 35 16 65 35 59 37 189 105 202 105 5 0
-14 -14 -42 -30 -27 -16 -49 -34 -47 -40 1 -5 -5 -10 -13 -10 -18 0 -83 -36
-111 -61 -11 -11 -24 -16 -28 -12 -5 5 -5 -3 -2 -17 5 -17 4 -21 -2 -11 -8 11
-14 11 -38 0 -22 -11 -30 -22 -32 -47 -2 -17 -1 -32 3 -32 13 0 67 32 62 37
-9 8 28 39 59 50 16 6 44 9 62 8 17 -2 32 1 32 6 0 5 5 9 11 9 21 0 -12 -30
-83 -76 -38 -24 -73 -42 -77 -40 -5 3 -22 0 -40 -7 l-31 -11 0 -157 0 -157 39
5 c36 5 168 -19 199 -36 12 -7 10 -12 -8 -29 -13 -12 -27 -19 -33 -15 -5 3
-13 -1 -18 -8 -7 -12 -9 -11 -9 1 0 10 -10 15 -27 15 -16 0 -39 4 -53 7 -24 7
-60 -5 -49 -16 2 -3 18 -7 34 -10 16 -3 31 -9 33 -14 1 -5 15 -7 31 -4 26 4
50 -12 38 -24 -3 -3 -42 4 -87 15 -46 12 -85 21 -87 21 -2 0 -3 -36 -2 -80 1
-62 5 -83 18 -90 14 -8 14 -9 -1 -10 -10 0 -18 -4 -18 -10 0 -5 9 -10 19 -10
11 0 23 -5 26 -11 5 -7 16 -2 31 12 l24 22 36 -19 c37 -20 59 -42 31 -31 -11
4 -20 -1 -27 -13 -7 -14 -7 -20 0 -20 5 0 10 -7 10 -15 0 -22 -19 -18 -39 6
-21 26 -111 44 -111 22 0 -7 6 -13 13 -13 8 0 7 -3 -3 -10 -8 -5 -11 -12 -7
-17 4 -4 17 -2 27 5 24 15 50 16 50 2 0 -5 -6 -10 -13 -10 -17 0 -67 -23 -67
-31 0 -4 12 -10 27 -14 19 -4 31 -2 38 8 8 11 24 14 60 10 28 -3 55 -9 61 -14
6 -5 33 0 65 12 30 12 64 23 77 26 12 3 23 9 23 14 1 5 2 15 3 22 1 6 10 12
21 12 11 1 41 11 66 23 25 12 50 22 56 22 6 0 13 5 15 11 3 9 9 9 25 0 27 -14
76 -14 181 1 57 8 80 14 72 22 -16 16 -12 32 17 67 l28 32 6 -24 c6 -24 7 -23
18 7 7 18 20 34 29 37 9 3 29 14 44 24 22 14 30 15 40 5 10 -10 10 -14 0 -21
-19 -11 -5 -61 18 -61 9 0 34 -12 55 -26 l38 -25 32 33 c37 37 85 46 85 16 0
-20 48 -48 83 -48 14 0 28 -7 31 -16 4 -10 2 -13 -7 -8 -7 5 -7 1 2 -10 12
-15 12 -19 -7 -32 -26 -18 -29 -36 -5 -27 28 10 103 65 103 76 0 5 -9 11 -20
14 -11 3 -20 9 -20 14 0 12 17 11 25 -1 8 -14 55 -13 55 1 0 8 25 9 83 4 89
-8 151 -30 126 -46 -12 -7 -12 -9 1 -10 36 -2 54 -9 62 -23 5 -8 21 -14 39
-14 35 1 59 -24 31 -32 -9 -3 -19 -14 -20 -25 -2 -11 -5 -21 -6 -22 -1 -2 -47
-5 -101 -8 -54 -4 -102 -8 -107 -11 -4 -3 -8 0 -8 5 0 13 -32 51 -42 51 -5 0
-8 -6 -8 -14 0 -8 -11 -17 -25 -20 -20 -5 -25 -13 -26 -39 l-1 -32 -7 30 c-3
17 -11 29 -16 27 -6 -2 -20 -5 -33 -9 -16 -4 -21 -10 -17 -23 4 -13 -1 -19
-19 -24 -14 -3 -28 -15 -31 -26 -3 -11 -11 -20 -16 -20 -5 0 -9 -7 -9 -15 0
-29 -65 -80 -121 -94 -30 -8 -60 -16 -66 -18 -20 -8 -16 27 8 71 11 21 18 45
16 54 -4 13 -5 14 -6 2 -1 -8 -15 -24 -31 -35 -17 -11 -32 -27 -35 -35 -5 -17
-139 -66 -167 -62 -9 2 -28 -2 -40 -9 -13 -7 -45 -17 -73 -21 -27 -5 -65 -11
-84 -15 -29 -5 -33 -3 -28 11 9 22 -5 20 -66 -10 -28 -15 -101 -37 -162 -50
-60 -13 -145 -31 -188 -40 -43 -9 -85 -13 -95 -8 -9 4 -23 6 -29 5 -7 -1 -13
3 -13 9 0 5 7 10 15 10 8 0 15 4 15 10 0 9 11 21 89 93 32 29 129 87 176 105
17 6 55 20 85 31 30 12 63 21 72 21 10 0 18 4 18 10 0 5 10 9 22 9 13 -1 32 2
43 6 14 5 16 4 7 -3 -11 -7 -8 -11 9 -15 28 -7 39 1 19 13 -11 7 -8 10 13 10
20 0 26 -4 21 -12 -4 -7 3 -4 15 7 18 16 25 17 42 7 16 -10 19 -10 19 3 0 8 5
15 11 15 5 0 8 -4 5 -9 -3 -5 0 -9 7 -8 6 0 21 -1 32 -2 18 -2 17 -4 -7 -17
-17 -9 -25 -20 -22 -29 4 -8 1 -15 -6 -15 -6 0 -8 -4 -5 -10 10 -17 19 -12 71
38 66 64 107 119 99 132 -3 6 -11 8 -16 5 -5 -4 -9 3 -9 14 0 10 4 21 9 23 14
5 25 58 12 58 -6 0 -11 -4 -11 -8 0 -5 -7 -9 -16 -9 -14 0 -14 2 2 14 24 17
25 34 3 55 -17 16 -18 16 -24 -1 -3 -10 -3 -27 1 -37 5 -18 5 -18 -10 0 -9 11
-16 26 -16 33 0 7 -4 13 -9 13 -17 0 -23 -21 -10 -36 6 -8 10 -16 8 -17 -2 -1
-17 -9 -32 -17 -15 -7 -26 -19 -23 -26 10 -25 -27 -42 -84 -38 -30 2 -65 6
-77 9 -13 3 -25 -1 -30 -8 -10 -17 -72 -39 -85 -31 -16 10 -58 -5 -52 -20 5
-14 -22 -30 -36 -21 -5 3 -11 1 -15 -5 -3 -5 -17 -10 -29 -10 -22 0 -60 -29
-40 -30 5 -1 -7 -7 -26 -14 -19 -7 -44 -17 -54 -21 -16 -7 -18 -5 -13 8 4 12
2 14 -11 10 -26 -9 -42 -24 -37 -34 3 -4 -4 -13 -15 -19 -11 -6 -18 -15 -14
-21 3 -6 -4 -7 -19 -4 -19 5 -30 0 -52 -26 -17 -21 -23 -35 -16 -37 15 -5 -16
-42 -34 -42 -17 0 -88 -77 -81 -88 3 -6 2 -13 -4 -17 -6 -4 -10 -86 -10 -219
l0 -214 93 -17 c50 -10 97 -21 102 -25 6 -4 28 -10 51 -13 22 -4 67 -15 100
-25 32 -11 91 -23 129 -27 39 -4 93 -13 122 -20 29 -8 102 -21 164 -30 61 -9
141 -23 178 -31 94 -21 194 -33 282 -34 42 0 116 -7 164 -15 50 -9 169 -17
279 -19 105 -2 225 -7 266 -11 46 -5 112 -3 171 5 80 10 120 9 255 -5 140 -15
172 -15 264 -3 78 10 138 11 233 5 141 -10 201 -1 242 37 61 56 86 76 94 76
11 0 -2 55 -17 73 -14 18 -23 100 -13 116 5 8 16 11 25 8 9 -4 16 -3 16 2 0 4
11 6 24 4 29 -6 47 -46 51 -112 1 -24 8 -47 15 -51 9 -5 5 -12 -11 -24 l-23
-16 22 0 c27 0 82 -27 82 -39 0 -5 14 -12 31 -16 17 -4 42 -13 57 -21 33 -17
175 -19 205 -2 28 15 161 16 305 1 95 -9 121 -9 165 4 38 11 112 16 272 18
156 2 239 7 287 19 37 8 134 18 218 20 83 3 155 8 159 10 4 3 118 10 252 16
134 6 267 15 294 20 28 5 90 9 138 9 49 1 118 5 155 11 37 5 132 19 212 31 80
11 172 28 205 38 33 11 107 29 164 41 57 13 127 32 155 42 28 11 62 22 76 26
39 8 69 32 86 67 14 31 16 54 3 65 -10 9 -57 154 -63 195 -9 56 3 67 75 76 35
4 65 12 67 18 2 6 9 11 16 11 25 0 98 67 127 116 48 83 44 94 -80 216 -131
129 -166 189 -159 275 7 84 59 137 143 146 49 6 148 -26 239 -77 37 -21 70
-35 75 -32 5 3 11 30 13 61 5 61 23 87 79 116 32 16 37 23 43 68 12 94 78 139
184 126 54 -7 57 -6 82 25 22 27 34 32 87 37 55 5 66 2 123 -28 72 -38 149
-104 170 -145 8 -16 35 -58 60 -94 68 -98 102 -148 133 -197 15 -25 34 -52 42
-60 8 -8 15 -19 15 -24 0 -18 30 -9 52 16 60 67 185 173 230 196 55 28 128 26
162 -6 55 -51 59 -98 18 -183 -36 -74 -23 -80 69 -35 157 78 253 39 219 -88
-13 -49 -6 -61 47 -77 52 -16 213 -149 213 -176 0 -35 44 -148 67 -170 63 -63
79 -133 52 -223 -11 -35 -28 -78 -39 -96 -51 -87 -128 -353 -116 -401 l6 -25
149 1 c194 1 252 -17 266 -82 9 -42 -15 -85 -69 -122 -27 -18 -58 -44 -68 -58
-41 -56 -108 -311 -95 -360 15 -56 12 -55 219 -56 114 -1 174 1 148 6 -35 5
-22 7 63 8 59 1 107 6 107 10 0 15 -24 32 -45 32 -12 0 -25 4 -31 10 -5 5 -51
13 -102 16 -90 7 -114 16 -69 28 12 3 53 19 90 36 78 35 102 66 112 144 4 28
16 78 26 111 10 33 21 78 23 100 3 22 11 56 17 75 6 19 13 100 16 180 4 90 10
149 18 156 22 22 48 161 42 224 -6 67 -68 208 -116 262 -16 18 -41 56 -56 83
-37 66 -41 75 -55 112 -11 29 -67 124 -89 149 -5 6 -16 24 -24 40 -8 16 -25
40 -37 54 -58 66 -92 120 -55 90 25 -21 17 3 -25 73 -22 36 -40 71 -40 76 0 6
-3 11 -7 11 -5 0 -19 17 -33 38 -13 20 -35 48 -47 61 -13 13 -20 28 -16 34 4
6 0 8 -9 4 -10 -3 -25 5 -39 21 -19 21 -19 23 -3 9 52 -44 54 -5 2 70 -22 34
-25 41 -11 36 11 -4 5 8 -17 32 l-35 38 37 -21 c57 -32 42 -6 -47 82 -71 71
-86 94 -30 46 35 -30 52 -31 47 -4 -6 33 14 30 32 -4 16 -32 44 -58 52 -49 5
5 -3 68 -25 212 -6 33 -23 86 -40 117 -34 66 -49 167 -33 220 18 57 24 120 11
112 -8 -4 -9 0 -4 15 5 17 2 21 -15 21 -17 0 -20 -4 -15 -22 6 -22 5 -22 -9
-4 -11 14 -23 17 -46 13 -17 -4 -30 -2 -30 3 0 6 11 10 25 10 28 0 75 19 75
31 0 4 -5 11 -11 15 -8 4 -7 9 2 16 11 7 11 11 2 15 -7 2 -13 12 -13 22 0 9
-13 31 -29 48 -16 18 -27 34 -24 37 2 2 -2 15 -10 28 -8 12 -18 34 -22 48 -10
31 -27 48 -43 42 -6 -2 -14 3 -18 11 -4 12 -29 14 -129 13 -124 -1 -146 8 -45
19 88 10 95 13 111 45 7 17 36 47 63 68 27 20 51 42 53 49 2 6 -8 20 -23 30
-23 15 -49 18 -135 18 -59 0 -105 3 -102 8 2 4 17 7 33 7 35 0 61 10 55 20 -3
4 -7 28 -10 51 -3 24 -10 46 -15 47 -6 2 -10 9 -10 15 0 6 -9 21 -21 33 -13
14 -17 24 -10 29 6 3 11 -1 11 -9 0 -22 27 -20 34 2 3 9 4 5 2 -10 -2 -16 3
-33 10 -39 12 -9 14 -3 14 34 0 45 -14 97 -29 107 -8 5 -71 115 -71 124 0 3 7
3 16 -1 14 -5 15 -3 4 16 -6 13 -9 30 -6 38 4 10 -2 22 -15 31 -15 10 -18 17
-9 22 16 10 4 30 -18 30 -13 0 -18 10 -19 40 -2 22 -9 53 -18 69 -9 18 -11 32
-5 36 10 6 -8 55 -25 67 -5 4 -10 11 -10 15 -1 4 -6 18 -13 31 -9 16 -10 22
-1 22 8 0 8 4 1 13 -5 6 -13 27 -17 46 -4 18 -18 49 -31 68 -13 20 -32 61 -41
92 -10 31 -28 64 -40 74 -13 10 -20 23 -17 28 3 6 -3 13 -15 16 -31 8 -25 20
14 27 38 8 43 20 20 53 -10 14 -11 23 -4 25 6 2 -10 15 -37 28 -51 27 -101 67
-92 75 3 3 34 -8 69 -24 34 -17 65 -28 68 -24 4 3 0 8 -6 10 -7 3 -13 15 -13
28 0 38 -36 110 -72 144 -18 17 -63 46 -100 64 -38 17 -68 37 -68 43 0 6 -24
28 -53 48 -40 27 -62 36 -92 35 -22 0 -33 -3 -25 -6 31 -12 80 -56 80 -72 -1
-14 -2 -14 -14 2 -7 9 -18 17 -25 17 -6 0 -11 4 -11 9 0 5 -8 12 -17 16 -12 4
-7 -5 11 -24 40 -42 27 -49 -26 -13 -49 33 -104 47 -139 34 -24 -9 -73 10 -95
37 -8 10 -15 11 -32 2 -11 -6 -23 -7 -26 -2 -3 5 -35 14 -70 21 -51 9 -84 9
-154 0 -49 -7 -96 -10 -103 -7 -8 3 0 6 18 6 17 1 34 5 37 9 3 5 -18 7 -47 5
-37 -3 -48 -2 -37 6 10 7 -8 9 -62 8 -61 -1 -79 2 -94 17 -17 18 -17 18 24 11
25 -4 42 -3 42 3 0 10 -92 22 -165 22 -30 0 -47 6 -61 21 l-19 22 38 -7 c21
-4 37 -3 37 2 0 14 -26 33 -33 25 -4 -3 -7 1 -7 11 0 9 7 19 15 23 16 5 45 53
45 73 0 5 -10 10 -22 10 -40 -1 -112 -40 -160 -87 l-47 -47 -51 24 c-27 13
-50 27 -50 31 0 9 -54 38 -93 49 -15 5 -25 5 -22 0 3 -5 18 -11 34 -15 15 -3
48 -26 72 -50 24 -24 56 -47 71 -50 41 -10 20 -39 -41 -60 -41 -13 -57 -14
-93 -5 -38 11 -188 104 -196 123 -2 4 -10 7 -17 7 -23 0 -103 86 -127 136 -22
48 -25 49 -83 60 -78 15 -88 19 -114 54 -15 22 -30 30 -51 30 -36 0 -37 -7 -5
-70 27 -53 34 -87 11 -57 -18 23 -21 22 -22 -10 -6 -172 -4 -161 -20 -126 -7
17 -18 34 -24 38 -5 3 -10 21 -10 38 0 18 -4 48 -10 66 -6 23 -6 39 1 47 7 9
6 13 -6 16 -11 2 -2 19 37 64 29 34 66 79 82 99 l29 38 91 -7 c156 -12 1160
-8 1203 4 42 11 85 44 100 75 6 11 11 45 12 75 2 44 -2 61 -20 84 l-22 28
-221 -7 c-1056 -31 -1075 -31 -1068 9 2 11 -1 15 -7 11 -16 -9 -14 0 22 135 8
30 16 91 17 135 1 44 2 118 3 165 1 47 5 87 9 90 10 7 -2 50 -13 50 -10 0 -10
0 -12 -58 -1 -24 1 -46 5 -48 3 -2 4 -16 2 -32 -6 -34 -16 -141 -15 -166 0
-11 -4 -27 -9 -37 -7 -12 -5 -19 5 -23 18 -7 20 -27 3 -23 -9 1 -14 -13 -16
-40 -2 -24 -8 -43 -13 -43 -6 0 -8 -4 -4 -10 9 -14 -6 -61 -18 -53 -6 4 -8 -4
-3 -23 5 -21 4 -25 -4 -14 -7 10 -10 11 -11 3 -1 -12 -3 -19 -8 -40 -2 -5 -6
1 -11 12 -7 17 -9 14 -9 -13 -1 -19 -5 -31 -11 -27 -5 3 -10 -1 -10 -10 0 -12
-5 -15 -22 -9 -20 6 -21 5 -10 -9 9 -10 10 -17 2 -22 -5 -3 -10 -1 -10 4 0 6
-5 11 -11 11 -6 0 -8 -9 -4 -22 6 -21 5 -22 -8 -5 -17 21 -27 22 -27 2 0 -8
-4 -15 -10 -15 -18 0 -10 18 17 40 l28 22 -26 -7 c-24 -6 -26 -4 -24 22 3 39
3 40 18 46 10 4 13 -2 9 -19 -4 -25 11 -33 24 -12 7 11 13 50 15 98 1 14 -2
48 -6 76 -5 38 -4 53 5 59 8 5 11 4 7 -2 -3 -5 -1 -27 4 -49 6 -21 10 -49 10
-61 -1 -34 7 -28 25 17 9 23 21 37 27 33 6 -4 8 2 5 15 -4 12 -3 22 1 22 14 0
42 133 31 144 -5 5 -10 15 -10 21 0 5 4 4 9 -4 8 -12 12 -12 25 -2 9 8 16 19
15 25 0 7 -2 6 -6 -1 -2 -7 -8 -13 -13 -13 -15 0 -21 39 -10 61 13 23 5 73
-10 64 -6 -3 -10 -15 -10 -25 0 -17 -4 -18 -25 -10 -20 7 -25 6 -25 -5 0 -9
-6 -12 -15 -9 -18 7 -20 31 -3 36 14 5 19 143 6 178 -6 16 -6 26 1 28 6 2 11
10 11 18 0 9 -4 13 -9 10 -9 -6 -21 40 -21 80 0 14 -5 23 -12 21 -7 -1 -14 8
-16 21 -2 12 -10 22 -18 22 -9 0 -14 11 -14 30 0 20 -5 30 -15 30 -10 0 -15 9
-14 28 0 24 1 25 9 7 8 -19 9 -19 9 2 1 16 6 21 21 18 25 -5 25 3 1 34 -16 21
-18 67 -2 57 3 -2 7 9 8 25 1 16 -1 29 -5 29 -4 0 -8 9 -9 20 -2 20 -1 20 17
-2 l18 -23 -3 38 c-3 36 2 42 33 38 7 -1 13 12 14 36 1 41 1 46 -8 108 -10 69
-11 145 -2 145 5 0 6 6 1 13 -11 18 -12 37 -2 37 5 0 9 5 9 10 0 6 -8 10 -17
10 -11 0 -14 3 -8 8 9 6 11 40 6 82 0 6 -9 10 -18 10 -11 0 -14 3 -8 8 12 8
12 42 1 63 -4 8 1 4 13 -9 11 -12 22 -18 25 -14 3 5 -3 17 -14 27 -11 10 -20
24 -20 32 0 7 -12 23 -26 36 -14 12 -50 45 -80 73 -29 29 -55 46 -58 40 -2 -6
-5 -3 -5 7 -1 9 -6 17 -12 17 -5 0 -7 6 -3 13 5 9 4 9 -6 0 -10 -9 -16 -9 -26
2 -8 7 -14 20 -14 27 0 7 -7 22 -15 32 -8 11 -15 25 -15 30 0 6 5 4 10 -4 6
-10 10 -11 10 -2 0 6 7 12 16 12 14 0 14 3 3 16 -7 8 -21 13 -31 11 -10 -3
-18 -1 -18 4 0 5 9 9 19 9 31 0 51 11 44 24 -4 6 16 -8 45 -32 29 -25 56 -58
64 -78 6 -19 16 -34 21 -34 4 0 5 -4 2 -10 -3 -5 -2 -10 2 -10 5 0 17 -19 27
-42 10 -24 26 -52 36 -63 22 -26 72 -154 65 -166 -4 -5 -2 -9 2 -9 5 0 9 -8
10 -17 0 -10 3 -36 6 -58 3 -22 8 -71 12 -110 25 -279 56 -509 69 -522 6 -7
15 67 15 134 1 59 9 138 30 298 10 70 15 91 31 130 5 11 13 49 18 85 11 69 35
144 44 135 3 -3 11 1 18 10 10 12 10 15 -5 15 -9 0 -15 6 -12 13 2 6 10 11 16
10 6 -2 12 3 12 10 1 6 3 22 4 35 1 12 10 31 19 41 20 22 21 45 2 60 -11 9
-15 9 -19 -1 -3 -7 -6 -8 -6 -2 -1 6 7 19 18 28 18 16 21 16 56 -8 20 -14 51
-28 69 -30 122 -18 175 -29 178 -38 2 -5 38 -16 80 -24 42 -8 109 -28 150 -45
72 -31 139 -46 121 -28 -11 11 -5 69 7 69 5 0 6 8 3 19 -6 25 24 53 56 49 24
-3 26 0 29 39 2 25 -4 55 -14 75 -32 62 -182 244 -226 274 -92 62 -243 123
-345 139 -24 4 -43 10 -43 14 0 4 -11 7 -25 6 -28 0 -55 -32 -47 -55 4 -12 2
-13 -8 -3 -10 9 -10 16 -2 26 6 7 9 23 5 35 -4 18 -8 20 -19 11 -8 -6 -14 -17
-14 -24 0 -7 -7 -15 -15 -19 -19 -7 -19 3 0 28 24 32 20 48 -10 34 -22 -10
-28 -9 -43 7 -14 15 -14 16 -1 7 14 -11 16 -9 11 13 -2 14 -8 22 -13 19 -16
-10 -9 13 8 27 11 9 14 10 9 2 -5 -9 -2 -11 9 -7 8 4 15 11 14 18 -4 23 14 66
27 67 143 13 237 -8 490 -111 54 -22 104 -40 113 -40 9 0 32 -14 51 -31 110
-96 134 -117 164 -145 19 -17 38 -29 44 -25 5 3 12 24 15 46 14 99 31 155 46
155 9 1 26 22 40 51 13 28 25 48 28 45 3 -2 17 0 32 6 14 6 44 12 66 15 46 4
85 21 85 37 0 16 80 103 115 126 37 25 97 26 137 3 33 -20 145 -182 182 -264
13 -30 33 -97 44 -150 11 -53 25 -105 31 -117 15 -29 14 -102 -1 -104 -7 0
-39 -2 -70 -3 -38 -1 -63 -7 -76 -18 -10 -9 -23 -17 -28 -17 -5 0 -11 -26 -12
-57 -2 -35 -10 -68 -22 -88 -11 -18 -18 -34 -15 -37 3 -2 -6 -11 -19 -18 -28
-14 -43 -43 -27 -48 6 -2 11 -12 11 -21 0 -10 8 -29 18 -42 10 -13 33 -58 52
-101 22 -52 37 -75 46 -71 8 3 14 1 14 -5 0 -5 17 -12 38 -15 64 -10 157 -40
179 -58 8 -7 25 -4 52 10 51 27 61 61 66 225 2 67 11 148 20 181 19 75 22 103
41 405 18 295 33 651 37 895 2 168 4 184 28 240 14 33 29 72 32 88 l7 27 -395
0 -395 0 -1 -32 c-1 -18 -2 -73 -3 -123 -1 -96 -10 -119 -65 -160 -38 -29
-125 -31 -223 -7 -63 16 -131 23 -283 28 -110 3 -204 8 -208 11 -5 3 -74 9
-154 14 -114 7 -151 6 -172 -5 -36 -18 -78 -25 -217 -36 -178 -14 -201 -19
-209 -44 -6 -18 -8 -18 -12 -4 -3 11 -14 17 -31 17 -111 0 -112 1 -143 32 -17
17 -39 48 -50 68 -19 36 -102 115 -123 117 -6 0 -20 5 -31 9 -11 4 -36 14 -55
22 -26 11 -31 16 -21 23 11 6 4 10 -23 15 -25 5 -36 12 -32 21 4 10 -5 13 -39
12 -33 -2 -41 -5 -34 -14 8 -9 5 -11 -10 -7 -12 3 -21 13 -21 22 0 13 -2 13
-9 3 -7 -12 -14 -11 -40 2 -27 15 -104 16 -711 16 -582 -1 -681 -3 -694 -15
-8 -8 -22 -15 -30 -15 -10 0 -13 -6 -9 -16 4 -12 0 -14 -21 -8 -16 4 -26 2
-26 -5 0 -6 -7 -11 -16 -11 -8 0 -12 -4 -9 -10 4 -6 -8 -11 -27 -12 -51 -2
-53 -2 -83 -22 -20 -13 -24 -20 -15 -26 17 -10 4 -30 -21 -30 -10 0 -19 -4
-19 -10 0 -5 -15 -12 -32 -15 -37 -7 -88 -47 -88 -68 0 -8 -12 -23 -27 -32
-15 -10 -53 -44 -85 -77 -32 -32 -63 -58 -68 -58 -6 0 -10 -7 -10 -15 0 -19
-69 -48 -84 -36 -18 13 -96 20 -311 27 -148 4 -204 9 -219 20 -11 8 -28 14
-38 14 -21 0 -37 27 -40 69 -1 17 -5 31 -9 31 -4 0 -10 11 -13 25 -8 31 -38
33 -68 6 -17 -17 -19 -26 -13 -58 5 -21 8 -41 7 -45 -1 -5 2 -8 8 -8 5 0 10
-14 10 -31 0 -45 32 -129 49 -129 22 0 50 -30 44 -46 -3 -8 0 -21 7 -29 10
-12 10 -15 -3 -15 -8 0 -17 -10 -20 -21 -4 -16 -11 -20 -26 -16 -14 3 -33 -5
-58 -24 -20 -16 -48 -32 -62 -35 -14 -2 -39 -12 -56 -21 -16 -9 -45 -23 -62
-32 -18 -8 -36 -23 -39 -33 -3 -10 -10 -18 -15 -18 -12 0 -49 -61 -43 -72 3
-4 12 -8 20 -8 19 0 44 -24 44 -42 0 -7 7 -23 15 -35 11 -16 14 -44 12 -107
-1 -47 -5 -86 -8 -86 -5 0 -22 -78 -19 -88 2 -9 -37 -69 -66 -102 -56 -62
-123 -66 -186 -11 -48 41 -84 47 -108 19 -11 -13 -19 -26 -20 -29 0 -4 22 -30
50 -59 57 -60 69 -99 46 -153 -11 -28 -13 -60 -9 -148 6 -102 8 -113 32 -137
23 -23 26 -33 23 -82 -5 -69 -5 -88 -1 -176 3 -60 0 -75 -20 -102 -12 -18 -41
-42 -64 -53 -35 -18 -51 -20 -114 -15 -70 7 -74 6 -82 -16 -5 -13 -16 -30 -25
-37 -12 -10 -16 -32 -16 -92 0 -73 1 -78 23 -82 16 -3 14 -5 -9 -6 -26 -1 -35
-8 -48 -35 -23 -49 -20 -68 14 -98 30 -26 60 -92 60 -129 0 -11 -10 -29 -21
-40 -19 -19 -29 -21 -87 -15 -70 7 -108 25 -193 89 -13 10 -40 28 -59 40 -34
23 -35 24 -36 93 -1 85 -14 118 -65 162 -22 19 -50 55 -62 81 -20 41 -26 46
-59 49 -21 2 -52 -3 -70 -12 -67 -30 -72 -29 -98 14 -20 31 -29 39 -45 34 -11
-3 -48 -10 -82 -15 -52 -8 -67 -7 -87 6 -38 25 -41 69 -7 134 15 31 34 86 40
124 16 93 25 114 61 132 38 19 38 29 -1 67 -16 17 -48 67 -71 111 -37 74 -40
86 -35 137 8 75 45 110 117 110 44 0 52 -3 74 -33 15 -19 26 -41 26 -49 0 -26
35 -48 76 -48 21 0 48 -7 58 -15 30 -22 41 -18 54 19 8 20 22 38 35 42 26 8
79 44 90 62 12 18 52 15 69 -5 35 -43 39 -71 17 -116 -28 -56 -59 -88 -78 -82
-9 2 -23 0 -31 -5 -12 -7 -13 -15 -4 -38 14 -37 -7 -105 -44 -145 -30 -32 -45
-32 -142 -3 -75 23 -86 24 -81 6 2 -8 12 -46 22 -84 11 -38 19 -88 19 -111 l0
-42 52 26 c72 35 162 40 227 13 40 -18 54 -19 85 -11 20 6 40 17 43 25 7 18
-45 73 -70 74 -18 0 -37 36 -37 70 0 10 14 32 31 49 39 39 83 41 135 6 20 -14
44 -25 54 -25 25 0 70 43 70 67 0 27 -15 38 -69 53 -50 13 -91 52 -92 89 -1
14 -2 52 -3 83 l-1 57 53 27 c29 15 57 35 62 44 5 10 30 30 55 44 25 15 45 31
45 35 0 14 87 51 121 51 27 0 30 3 28 28 -4 52 0 60 24 55 12 -3 27 -12 34
-20 10 -13 17 -8 41 33 17 27 40 58 51 69 102 94 96 84 97 168 0 42 6 82 12
90 9 10 7 18 -7 34 -10 11 -21 28 -25 39 -3 11 -22 28 -41 38 -40 22 -50 43
-35 81 14 37 6 45 -50 45 -45 0 -51 -3 -89 -47 -24 -27 -46 -64 -52 -89 -13
-49 -26 -63 -89 -89 -25 -11 -57 -33 -72 -50 -15 -16 -27 -24 -28 -17 0 7 -4
11 -9 8 -4 -3 -5 -24 -1 -47 10 -52 -6 -92 -52 -135 -45 -43 -69 -54 -117 -54
-32 0 -43 -5 -60 -29 -12 -16 -21 -33 -21 -39 0 -20 -40 -53 -95 -78 -56 -26
-57 -26 -98 -9 -91 38 -114 44 -157 45 -63 1 -94 18 -139 72 -30 37 -41 60
-46 100 -4 29 -12 59 -17 66 -17 21 -99 15 -124 -9 -18 -17 -36 -21 -80 -21
-60 0 -74 9 -74 49 0 43 49 127 95 162 31 23 48 45 55 70 13 46 33 69 92 106
26 16 56 46 68 67 24 43 82 91 136 114 29 12 55 15 106 9 68 -6 138 8 138 28
0 6 24 7 56 4 46 -5 62 -12 86 -36 44 -45 77 -42 111 11 35 55 42 95 24 149
-20 62 -52 76 -117 55 -64 -21 -69 -20 -109 14 -32 28 -33 30 -28 90 3 34 3
68 1 75 -7 17 -56 29 -84 20 -29 -9 -55 -78 -59 -153 -1 -7 -13 -17 -27 -22
-21 -8 -37 -5 -79 15 -30 14 -56 34 -60 44 -11 34 -42 31 -215 -18 -143 -42
-137 -41 -161 -15 -12 12 -25 42 -29 66 -10 56 -7 218 4 241 8 16 -4 17 -171
17 l-179 0 -17 -35z m5223 -16 c0 -6 -4 -7 -10 -4 -5 3 -10 11 -10 16 0 6 5 7
10 4 6 -3 10 -11 10 -16z m-1625 -159 c3 -5 -1 -10 -10 -10 -9 0 -13 5 -10 10
3 6 8 10 10 10 2 0 7 -4 10 -10z m66 -27 c13 -16 12 -17 -3 -4 -10 7 -18 15
-18 17 0 8 8 3 21 -13z m-181 -54 c0 -11 -4 -17 -10 -14 -5 3 -10 13 -10 21 0
8 5 14 10 14 6 0 10 -9 10 -21z m-25 -19 c3 -5 1 -10 -4 -10 -6 0 -11 5 -11
10 0 6 2 10 4 10 3 0 8 -4 11 -10z m-3255 -162 c0 -5 5 -6 10 -3 6 3 10 -5 10
-18 0 -18 -7 -27 -25 -31 -14 -4 -25 -14 -25 -23 0 -13 -3 -14 -12 -5 -7 7
-20 12 -30 12 -21 0 -26 51 -5 68 25 21 77 21 77 0z m2858 -223 c-3 -3 -9 2
-12 12 -6 14 -5 15 5 6 7 -7 10 -15 7 -18z m2952 -281 c0 -8 -4 -12 -10 -9 -5
3 -10 10 -10 16 0 5 5 9 10 9 6 0 10 -7 10 -16z m-3415 -14 c28 -11 105 -83
105 -98 0 -5 -8 -27 -17 -48 -9 -22 -18 -46 -19 -54 0 -9 -8 -31 -17 -50 -9
-19 -22 -57 -28 -85 -7 -27 -19 -60 -26 -72 -16 -24 -5 -83 21 -118 10 -13 15
-43 16 -85 0 -36 5 -103 10 -149 14 -110 11 -114 -89 -107 -42 2 -95 8 -119
11 -62 10 -100 -9 -123 -61 -10 -23 -35 -54 -54 -68 -34 -26 -35 -30 -32 -79
5 -64 -9 -101 -66 -175 -81 -105 -85 -128 -30 -157 52 -27 69 -43 109 -96 34
-46 44 -100 28 -144 -10 -25 -59 -45 -112 -45 -91 0 -147 68 -138 166 4 40 24
94 35 94 4 0 6 12 5 28 0 15 -2 43 -2 63 -2 30 -7 39 -30 48 -39 16 -62 60
-62 118 0 116 24 163 80 157 48 -6 63 15 53 73 -13 75 -6 98 44 147 l45 45
-12 50 c-10 43 -9 55 4 83 9 17 19 45 22 61 2 16 11 42 20 58 10 21 12 34 5
48 -6 10 -7 21 -4 25 4 3 -7 20 -23 37 l-29 30 25 19 c33 26 46 25 73 -6 40
-46 71 -56 153 -49 104 10 108 21 35 96 -78 80 -106 95 -137 74 -42 -27 -114
-17 -114 16 0 25 25 35 53 21 12 -6 33 -14 45 -17 20 -6 23 -4 18 12 -3 10 -1
25 4 33 8 13 10 12 10 -3 0 -10 5 -15 10 -12 6 3 10 15 10 25 0 10 9 22 20 25
11 4 35 25 53 47 31 39 94 77 129 78 9 0 28 -4 43 -10z m3382 -32 c-3 -8 -6
-5 -6 6 -1 11 2 17 5 13 3 -3 4 -12 1 -19z m-5942 -328 c3 -5 -1 -10 -9 -10
-9 0 -16 5 -16 10 0 6 4 10 9 10 6 0 13 -4 16 -10z m4189 -21 c-8 -14 -24 -10
-24 6 0 9 6 12 15 9 8 -4 12 -10 9 -15z m1929 -26 c-13 -8 -23 -22 -23 -30 0
-13 2 -13 17 -2 14 12 16 12 11 -1 -6 -19 -48 -22 -48 -3 0 27 21 53 43 52
l22 0 -22 -16z m-1823 -20 c0 -7 6 -13 13 -13 8 0 19 -10 25 -22 10 -23 11
-23 11 5 1 15 6 27 12 27 7 0 9 -9 6 -22 -6 -23 -6 -23 10 -3 15 20 15 20 8
-2 -4 -14 -2 -23 5 -23 6 0 9 -4 5 -10 -3 -5 -12 -7 -20 -3 -8 3 -15 0 -15 -6
0 -6 -6 -10 -12 -8 -7 1 -14 -9 -16 -22 -2 -15 0 -21 7 -17 17 11 13 -6 -7
-29 -10 -12 -42 -26 -77 -34 -33 -8 -64 -18 -69 -23 -14 -11 -28 -10 -21 2 4
6 -9 10 -32 9 -37 -1 -37 -2 -8 -8 28 -6 27 -7 -23 -18 -29 -5 -55 -6 -58 -2
-3 5 -11 9 -17 9 -7 0 -6 -4 3 -10 18 -11 13 -16 -25 -23 -16 -4 -24 -4 -17
-1 6 3 12 11 12 17 0 6 -11 0 -26 -13 -20 -20 -27 -22 -33 -11 -7 11 -16 11
-39 3 -21 -7 -33 -7 -41 1 -8 8 -14 7 -23 -5 -14 -18 -73 -14 -62 3 3 5 9 7
14 4 5 -3 11 -1 15 4 3 6 12 8 19 5 8 -3 17 -1 20 5 4 6 13 8 21 5 7 -3 18 4
25 15 6 12 21 21 34 21 19 0 23 4 19 19 -3 12 2 20 16 24 24 6 29 27 6 27 -8
0 -15 5 -15 10 0 12 13 13 26 1 5 -5 27 -6 49 -1 22 4 36 8 30 9 -5 1 5 14 23
30 27 23 31 29 18 34 -9 4 -16 14 -16 24 0 15 2 16 10 3 8 -12 10 -12 16 3 7
20 30 23 37 5 3 -8 6 -5 6 5 1 17 9 18 76 15 52 -2 75 -7 75 -15z m-220 -53
c0 -5 -7 -10 -15 -10 -8 0 -15 5 -15 10 0 6 7 10 15 10 8 0 15 -4 15 -10z
m2028 -25 c-1 -13 -9 -27 -16 -30 -18 -7 -42 13 -41 34 0 10 4 8 10 -8 8 -19
12 -21 24 -11 8 7 15 19 15 26 0 8 2 14 5 14 3 0 4 -11 3 -25z m-1671 -33 c-3
-12 -5 -11 -6 6 0 12 -6 22 -12 22 -5 0 -7 5 -3 11 9 16 27 -16 21 -39z m-17
-17 c0 -9 -6 -12 -15 -9 -10 4 -15 0 -15 -11 0 -15 -2 -15 -15 -1 -19 18 -19
30 -2 23 8 -3 20 -1 28 4 19 12 19 11 19 -6z m1650 -10 c0 -8 -7 -15 -15 -15
-16 0 -20 12 -8 23 11 12 23 8 23 -8z m-45 -15 c3 -5 -1 -10 -10 -10 -9 0 -13
5 -10 10 3 6 8 10 10 10 2 0 7 -4 10 -10z m-1675 -20 c-8 -5 -17 -7 -19 -4 -3
3 1 9 9 14 8 5 17 7 19 4 3 -3 -1 -9 -9 -14z m-4560 -24 c0 -66 -18 -83 -51
-45 -15 17 -16 25 -6 42 27 49 57 50 57 3z m4000 10 c0 -3 -4 -8 -10 -11 -5
-3 -10 -1 -10 4 0 6 5 11 10 11 6 0 10 -2 10 -4z m90 -10 c0 -2 -7 -7 -16 -10
-8 -3 -12 -2 -9 4 6 10 25 14 25 6z m417 -2 c-3 -3 -12 -4 -19 -1 -8 3 -5 6 6
6 11 1 17 -2 13 -5z m1763 -34 c0 -5 -2 -10 -4 -10 -3 0 -8 5 -11 10 -3 6 -1
10 4 10 6 0 11 -4 11 -10z m-2250 -46 c0 -3 -16 -25 -35 -48 -19 -24 -35 -48
-35 -53 0 -6 -11 -13 -24 -15 -24 -5 -25 -4 -10 23 8 16 21 29 28 29 20 0 45
32 28 37 -6 3 -10 9 -7 13 3 5 12 7 20 3 8 -3 15 0 15 6 0 6 5 11 10 11 6 0
10 -3 10 -6z m-145 -94 c3 -6 -1 -7 -9 -4 -18 7 -21 14 -7 14 6 0 13 -4 16
-10z m2292 -22 c-3 -8 -6 -5 -6 6 -1 11 2 17 5 13 3 -3 4 -12 1 -19z m-2367
-32 c0 -7 -7 -19 -16 -27 -14 -11 -14 -13 0 -21 9 -5 16 -14 16 -19 0 -6 -4
-7 -10 -4 -5 3 -10 2 -10 -4 0 -6 -10 -19 -21 -30 l-21 -20 23 5 c18 4 20 3
10 -4 -8 -6 -11 -17 -8 -26 5 -11 -4 -23 -28 -39 -19 -12 -35 -26 -35 -30 0
-5 5 -5 10 -2 6 4 10 -8 10 -28 0 -22 -6 -37 -15 -41 -8 -3 -15 -10 -15 -17 0
-6 7 -9 15 -5 8 3 15 1 15 -4 0 -6 -4 -10 -10 -10 -5 0 -10 -7 -10 -15 0 -8
-4 -15 -10 -15 -5 0 -10 -4 -10 -10 0 -5 7 -7 15 -4 8 4 15 2 15 -4 0 -5 -10
-12 -22 -16 -18 -5 -20 -8 -9 -15 9 -6 10 -11 2 -15 -6 -4 -9 -11 -7 -15 12
-19 15 -72 6 -95 -7 -21 -6 -24 6 -19 12 4 14 0 9 -19 -9 -35 33 -68 89 -69
58 -2 100 -12 97 -24 -2 -5 14 -15 35 -22 34 -10 36 -12 12 -12 -16 -1 -28 -5
-28 -10 0 -11 106 -25 120 -16 5 3 10 1 10 -4 0 -6 10 -11 23 -11 97 0 188 -7
198 -17 11 -11 67 3 79 19 8 10 54 6 62 -7 5 -6 8 -3 8 8 0 10 8 17 20 17 11
0 20 -2 20 -4 0 -2 3 -13 6 -23 5 -16 4 -16 -11 2 -17 20 -17 19 -12 -8 3 -22
-1 -31 -22 -42 -14 -8 -20 -14 -13 -15 7 0 12 -13 11 -32 -1 -31 -1 -32 -9 -8
-4 14 -8 19 -9 13 -1 -7 -7 -13 -15 -13 -8 0 -17 -7 -20 -16 -5 -12 -2 -15 10
-10 14 5 15 4 4 -9 -7 -8 -9 -15 -6 -15 4 0 1 -7 -8 -15 -17 -17 -30 -20 -21
-5 3 6 -1 10 -10 10 -11 0 -15 -5 -11 -15 5 -14 -11 -21 -37 -16 -5 1 -6 -3
-2 -9 3 -5 0 -10 -8 -10 -8 0 -17 -9 -20 -21 -4 -15 -11 -19 -25 -14 -11 3
-23 1 -27 -5 -3 -5 -1 -10 5 -10 6 0 8 -5 4 -11 -4 -6 -19 -9 -36 -5 -16 3
-27 2 -24 -3 6 -9 -16 -21 -37 -21 -7 0 -6 4 3 10 8 5 12 11 10 14 -3 2 -14
-2 -24 -10 -11 -8 -14 -14 -8 -14 7 0 12 -4 12 -10 0 -5 -9 -10 -21 -10 -11 0
-29 -5 -40 -10 -14 -8 -19 -7 -20 2 0 7 -5 1 -10 -13 -5 -14 -21 -31 -35 -38
-23 -10 -26 -9 -31 9 -6 21 -19 27 -25 10 -2 -6 -13 -12 -25 -14 -20 -4 -20
-2 -11 32 6 20 15 43 20 50 7 8 7 12 0 12 -5 0 -15 -7 -22 -15 -7 -8 -20 -15
-29 -16 -12 0 -11 -2 4 -9 11 -5 14 -9 8 -9 -7 -1 -13 -8 -13 -18 0 -9 -3 -13
-7 -10 -3 4 -12 2 -20 -4 -7 -6 -13 -9 -13 -6 0 3 -11 -5 -25 -19 -15 -15 -30
-22 -37 -18 -9 6 -8 9 2 12 15 5 25 15 50 46 14 18 13 19 -3 13 -15 -5 -16 -2
-11 21 3 15 2 22 -3 16 -4 -6 -16 -13 -26 -17 -12 -5 -17 -15 -15 -34 2 -18
-1 -27 -9 -26 -7 2 -13 -2 -13 -9 0 -6 -7 -3 -15 8 -14 19 -14 18 -15 -3 0
-13 -5 -23 -11 -23 -6 0 -9 6 -6 13 3 8 1 20 -4 28 -7 12 -9 12 -9 -1 0 -9 -9
-2 -21 15 l-21 30 6 -27 c5 -21 3 -28 -8 -28 -10 0 -16 13 -18 38 -2 20 -8 37
-15 37 -6 0 -14 3 -18 7 -4 4 -12 5 -19 2 -16 -6 -12 71 5 92 10 12 10 15 -2
12 -9 -2 -15 7 -17 25 -2 15 -8 27 -13 27 -6 0 -6 7 1 19 5 11 7 33 4 50 -4
16 -2 44 4 60 6 17 7 33 3 35 -4 3 -4 31 0 63 5 32 6 65 3 74 -2 9 2 22 11 29
8 7 12 16 9 21 -3 5 2 9 10 9 10 0 13 6 9 16 -3 9 0 20 7 24 7 4 9 13 5 20 -6
10 -10 10 -19 -2 -10 -14 -13 -14 -26 0 -13 14 -12 15 1 10 8 -3 26 3 40 13
20 15 21 19 7 19 -10 0 -18 5 -18 11 0 6 8 8 19 4 22 -7 32 13 24 44 -6 25 32
65 54 57 14 -6 16 6 7 42 -7 26 -24 30 -24 5 0 -9 -3 -13 -7 -9 -11 10 -12 36
-2 36 5 0 18 9 28 19 17 17 17 20 4 25 -8 3 -19 4 -24 0 -5 -3 -9 2 -9 11 0 9
4 14 9 11 18 -11 42 6 36 25 -5 14 -1 19 13 19 13 0 19 6 18 17 0 10 11 23 27
31 29 14 35 27 15 35 -7 3 -3 6 9 6 22 1 44 21 23 21 -6 0 -8 5 -5 10 9 15 25
12 25 -4z m42 7 c-6 -2 -9 -10 -6 -15 4 -7 2 -8 -4 -4 -18 11 -14 26 6 25 10
0 12 -3 4 -6z m2013 -23 c3 -5 1 -10 -4 -10 -6 0 -11 5 -11 10 0 6 2 10 4 10
3 0 8 -4 11 -10z m-2101 -205 c-20 -31 -22 -31 -19 -2 3 28 2 27 20 27 14 0
13 -3 -1 -25z m-4 -55 c0 -5 -4 -10 -10 -10 -5 0 -10 5 -10 10 0 6 5 10 10 10
6 0 10 -4 10 -10z m2005 -8 c-3 -3 -11 0 -18 7 -9 10 -8 11 6 5 10 -3 15 -9
12 -12z m32 -37 c9 -25 -4 -29 -17 -6 -7 15 -7 21 0 21 6 0 13 -7 17 -15z
m-771 -38 c8 -4 14 -15 14 -22 0 -8 4 -15 9 -15 8 0 19 -40 24 -87 1 -12 6
-25 10 -29 4 -5 5 0 2 11 -6 17 -4 17 14 -4 13 -15 19 -31 16 -42 -5 -14 -1
-19 12 -20 17 -1 17 -2 1 -6 -24 -6 -22 -16 5 -28 12 -6 23 -20 25 -32 2 -13
8 -23 13 -23 15 0 10 -27 -6 -34 -8 -3 -15 -10 -15 -16 0 -6 6 -8 13 -5 6 4 4
0 -7 -9 -10 -8 -15 -19 -11 -25 3 -7 -2 -11 -14 -11 -12 0 -21 -4 -21 -10 0
-5 -7 -10 -15 -10 -7 0 -18 -6 -22 -13 -9 -15 -74 -47 -96 -47 -9 0 -17 -6
-19 -12 -3 -7 -11 -13 -19 -14 -41 -2 -99 -18 -99 -27 0 -6 -3 -7 -7 -4 -3 4
-13 1 -22 -6 -21 -18 -106 -41 -126 -34 -19 8 -20 57 -1 57 7 0 21 12 31 26
10 15 22 23 31 20 8 -3 14 -1 14 3 0 5 21 19 46 31 43 21 44 23 25 37 -25 17
-91 8 -91 -13 0 -8 -5 -14 -10 -14 -6 0 -20 -11 -32 -25 -22 -25 -48 -24 -27
1 17 21 -4 18 -43 -6 -41 -25 -47 -25 -45 0 1 14 6 18 19 14 13 -4 18 0 18 15
0 22 26 29 32 9 6 -18 40 0 36 19 -3 16 24 53 38 53 3 0 24 16 47 35 30 26 50
35 78 35 20 0 42 7 49 15 7 8 16 12 21 9 5 -3 6 2 3 11 -7 18 32 54 59 55 9 0
17 5 17 12 0 6 -3 8 -7 5 -3 -4 -13 -2 -20 5 -11 9 -16 9 -23 -2 -5 -8 -13
-11 -17 -6 -4 5 -2 11 5 13 6 3 12 11 12 18 0 7 -6 16 -12 18 -7 3 -2 6 12 7
14 1 21 3 15 6 -5 2 -10 34 -9 71 1 63 2 68 25 73 17 4 25 2 28 -9 2 -9 9 -20
17 -24z m-1462 -5 c-7 -4 -14 -16 -17 -27 -4 -15 -5 -14 -6 8 -1 20 4 27 17
27 11 0 13 -3 6 -8z m2169 -52 c17 0 -15 -28 -37 -32 -14 -2 -19 4 -21 29 -1
18 1 31 5 28 4 -3 14 3 21 12 13 15 14 14 17 -10 2 -15 8 -27 15 -27z m-1573
5 c0 -9 9 -15 25 -15 14 0 25 -5 25 -12 0 -6 -3 -8 -7 -5 -3 4 -13 1 -21 -5
-11 -10 -17 -9 -27 5 -7 9 -18 17 -25 17 -10 0 -10 3 0 15 7 8 16 15 21 15 5
0 9 -7 9 -15z m1631 -62 c12 -15 12 -16 -1 -8 -8 5 -3 -5 11 -22 23 -28 26
-40 20 -88 -2 -16 -54 -16 -75 0 -23 17 -33 85 -14 96 10 7 10 9 -2 9 -11 1
-10 4 4 15 26 19 40 19 57 -2z m-551 -91 c0 -20 3 -23 9 -13 8 12 12 12 25 2
9 -8 16 -17 16 -22 0 -5 20 -40 45 -79 25 -39 45 -75 45 -80 0 -13 -17 -13
-25 0 -11 18 -25 10 -25 -15 0 -31 30 -49 46 -27 28 38 95 -85 76 -138 -8 -21
-11 -19 -40 31 -17 30 -32 48 -32 40 0 -8 -3 -11 -7 -8 -3 4 -11 -3 -18 -16
-7 -14 -19 -21 -33 -20 -13 2 -22 -3 -22 -11 0 -7 -7 -19 -15 -26 -13 -11 -15
-8 -15 13 0 14 4 37 10 51 6 16 6 27 -1 31 -5 4 -7 11 -4 16 4 5 1 9 -4 9 -6
0 -11 8 -11 18 0 10 -4 22 -9 28 -28 30 -49 190 -27 207 8 6 7 10 -1 13 -7 3
-9 12 -6 20 8 21 23 6 23 -24z m-315 18 c3 -5 -3 -10 -15 -10 -12 0 -18 5 -15
10 3 6 10 10 15 10 5 0 12 -4 15 -10z m-5168 -155 c45 -80 15 -167 -78 -224
-82 -50 -159 -14 -159 76 0 73 29 113 118 165 64 36 91 33 119 -17z m6080 13
c-3 -8 -6 -5 -6 6 -1 11 2 17 5 13 3 -3 4 -12 1 -19z m-1355 -40 c-9 -9 -12
-7 -12 12 0 19 3 21 12 12 9 -9 9 -15 0 -24z m138 18 c0 -2 -7 -7 -16 -10 -8
-3 -12 -2 -9 4 6 10 25 14 25 6z m-140 -90 c0 -3 -4 -8 -10 -11 -5 -3 -10 -1
-10 4 0 6 5 11 10 11 6 0 10 -2 10 -4z m190 -56 c0 -12 -40 -34 -48 -26 -3 3
0 6 6 6 6 0 9 7 6 15 -4 10 0 15 15 15 12 0 21 -4 21 -10z m-1491 -108 c7 -13
6 -27 -4 -45 -8 -15 -17 -47 -21 -72 -11 -76 -20 -50 -12 38 3 45 7 85 7 90 2
14 20 7 30 -11z m105 -22 c-5 -5 -21 -12 -36 -15 -21 -5 -28 -3 -28 7 0 9 12
14 36 15 20 1 32 -3 28 -7z m130 -41 c2 -24 8 -61 14 -83 6 -21 8 -45 5 -54
-4 -10 -2 -13 5 -8 6 4 10 -1 10 -11 0 -10 3 -30 7 -45 11 -43 -2 -33 -24 16
-11 25 -17 55 -14 68 3 15 2 19 -4 11 -7 -9 -12 -8 -23 7 -22 30 -37 24 -48
-17 l-10 -38 -1 45 c-1 54 13 83 29 60 10 -13 11 -13 9 0 -3 17 31 103 38 97
2 -3 6 -24 7 -48z m906 41 c0 -5 -5 -10 -11 -10 -5 0 -7 5 -4 10 3 6 8 10 11
10 2 0 4 -4 4 -10z m-1687 -31 c-17 -17 -37 -1 -22 17 8 10 15 12 23 4 7 -7 7
-13 -1 -21z m-1229 -19 c84 -54 99 -142 31 -189 -39 -26 -47 -61 -15 -61 11 0
20 -4 20 -10 0 -5 7 -10 15 -10 31 0 72 -29 85 -60 22 -53 -8 -269 -49 -350
-10 -19 -21 -48 -25 -63 -4 -16 -20 -42 -37 -58 -25 -25 -38 -29 -83 -29 -85
0 -110 32 -128 165 -2 11 -15 24 -28 28 -21 8 -34 3 -72 -22 -53 -36 -60 -37
-113 -11 -41 20 -80 26 -71 12 11 -18 -49 -60 -88 -64 -30 -2 -42 2 -57 21
-22 27 -25 70 -6 93 16 21 60 31 124 29 48 -1 52 1 73 34 27 43 47 55 95 55
l37 0 -7 73 c-6 70 -5 73 27 121 18 27 40 61 48 75 8 14 21 30 28 34 14 9 3
36 -28 72 -65 75 -3 140 136 144 29 1 53 -7 88 -29z m3211 10 c4 -6 15 -8 26
-5 14 5 20 0 25 -19 3 -14 11 -26 17 -26 24 0 -10 -18 -45 -24 -32 -6 -36 -5
-31 13 2 10 0 22 -6 25 -13 9 -15 46 -2 46 6 0 13 -5 16 -10z m-845 -56 c0 -8
-4 -12 -10 -9 -5 3 -10 10 -10 16 0 5 5 9 10 9 6 0 10 -7 10 -16z m2127 -26
c-3 -7 -5 -2 -5 12 0 14 2 19 5 13 2 -7 2 -19 0 -25z m-4045 -23 c-2 -14 -8
-25 -13 -25 -10 0 -12 21 -3 44 9 24 22 10 16 -19z m2803 -5 c-12 -5 -14 -9
-6 -9 8 -1 12 -3 9 -6 -3 -3 -13 -2 -22 1 -14 5 -15 9 -4 15 7 5 20 8 28 8 10
0 8 -3 -5 -9z m1265 -106 c0 -8 -4 -12 -10 -9 -5 3 -10 10 -10 16 0 5 5 9 10
9 6 0 10 -7 10 -16z m-2583 -34 c15 -17 19 -30 13 -40 -13 -22 -40 6 -40 43 0
17 1 28 3 26 1 -2 12 -15 24 -29z m-175 1 c8 11 9 10 4 -4 -3 -10 -6 -26 -7
-35 -1 -20 -17 25 -17 48 0 8 3 6 5 -4 4 -15 7 -16 15 -5z m-2287 -37 c11 -15
14 -15 44 0 35 19 57 15 88 -14 28 -25 20 -54 -24 -87 -31 -24 -38 -25 -67
-15 -18 7 -49 12 -70 12 -47 0 -106 25 -106 45 0 8 4 23 9 33 5 9 12 25 15 36
6 16 13 18 53 12 25 -3 51 -13 58 -22z m2326 -20 c12 -14 11 -16 -5 -13 -11 2
-21 10 -24 17 -5 17 13 15 29 -4z m2719 -26 c0 -4 -4 -8 -9 -8 -6 0 -12 4 -15
8 -3 5 1 9 9 9 8 0 15 -4 15 -9z m-2532 -59 c-2 -6 -7 -10 -11 -10 -4 1 -14 1
-23 1 -8 0 -12 5 -9 10 8 13 48 13 43 -1z m-1571 -119 c62 -37 51 -100 -17
-100 -35 0 -50 17 -50 56 0 67 14 76 67 44z m4027 -166 c9 -3 14 -10 11 -15
-7 -10 -35 0 -35 12 0 11 3 11 24 3z m-34 -195 c0 -6 -4 -7 -10 -4 -5 3 -10
11 -10 16 0 6 5 7 10 4 6 -3 10 -11 10 -16z m-4658 -99 c18 -11 41 -20 50 -20
27 0 87 -58 97 -94 22 -82 -12 -144 -96 -176 l-57 -21 -75 28 c-65 25 -79 34
-98 68 -33 58 -31 133 3 175 49 58 120 74 176 40z m2564 -540 c-1 -34 -7 -54
-18 -62 -21 -16 -32 -69 -17 -79 8 -5 8 -12 0 -27 -6 -11 -11 -27 -10 -34 0
-10 2 -10 6 0 2 6 9 12 14 12 16 0 10 -26 -11 -45 -14 -13 -20 -31 -20 -62 0
-23 5 -43 10 -43 6 0 10 11 10 25 0 16 6 25 15 25 8 0 15 -6 15 -12 -1 -20
-27 -63 -36 -60 -5 2 -10 -1 -12 -7 -5 -14 15 -14 23 -1 3 6 21 10 38 10 l32
0 -42 -19 c-47 -22 -82 -79 -108 -177 -21 -80 -41 -109 -124 -182 -51 -44 -79
-62 -92 -59 -11 3 -16 1 -13 -5 7 -12 -24 -48 -42 -48 -10 0 -9 9 6 38 10 20
24 49 29 65 10 26 36 45 47 34 3 -3 1 -14 -4 -24 -7 -13 -7 -24 0 -34 8 -11 9
-11 4 4 -3 11 0 17 9 17 8 0 28 12 45 28 23 20 28 33 24 50 -6 21 -7 21 -19 5
-7 -10 -11 -21 -9 -25 3 -5 -3 -8 -12 -8 -14 0 -15 3 -6 12 8 8 9 15 0 25 -8
11 -7 12 6 7 11 -4 16 -1 16 11 0 9 12 26 26 38 l26 20 -23 13 -24 12 25 11
c37 15 63 38 56 50 -8 12 32 56 42 46 4 -3 2 -9 -3 -13 -17 -12 -36 -62 -24
-62 6 0 9 -5 7 -11 -2 -6 -7 -10 -11 -10 -4 1 -13 -4 -21 -11 -9 -9 -10 -15
-2 -24 6 -7 14 -10 18 -8 13 8 38 66 32 76 -3 5 -1 14 4 21 5 7 13 28 16 47 5
26 4 31 -3 20 -6 -8 -11 -11 -11 -6 0 5 6 17 14 25 16 19 30 71 19 71 -5 0
-15 -14 -22 -32 -16 -35 -188 -215 -178 -185 4 10 7 23 7 28 0 5 6 9 14 9 8 0
18 9 21 20 3 11 11 20 16 20 5 0 9 8 9 18 0 10 24 48 53 84 82 105 101 171
106 370 1 23 20 42 57 58 1 0 0 -22 0 -50z m-1143 -59 c-18 -15 -33 -32 -33
-38 0 -6 -13 -16 -29 -23 -28 -11 -44 -31 -46 -56 0 -6 -14 -24 -31 -40 -17
-16 -33 -35 -35 -43 -6 -18 -35 -8 -74 25 -16 13 -22 22 -12 18 13 -5 40 15
105 77 79 77 123 104 172 107 8 1 1 -11 -17 -27z m713 -58 c-2 -18 -13 -33
-32 -44 -17 -9 -34 -30 -41 -50 -14 -39 -17 -82 -5 -76 4 3 7 -17 8 -44 1 -27
-2 -49 -5 -49 -3 0 -12 18 -19 40 -26 84 -5 215 39 237 41 21 58 17 55 -14z
m-928 -20 c-14 -2 -32 -11 -38 -19 -7 -8 -19 -14 -27 -14 -7 0 -16 -7 -19 -15
-8 -19 -24 -19 -24 0 0 18 76 55 110 53 25 -1 25 -1 -2 -5z m5432 -63 c0 -5
-2 -10 -4 -10 -3 0 -8 5 -11 10 -3 6 -1 10 4 10 6 0 11 -4 11 -10z m85 -30 c3
-5 -1 -10 -9 -10 -8 0 -18 5 -21 10 -3 6 1 10 9 10 8 0 18 -4 21 -10z m-35
-20 c0 -5 -7 -7 -15 -4 -8 4 -15 8 -15 10 0 2 7 4 15 4 8 0 15 -4 15 -10z
m-5997 -127 c3 -10 5 -37 6 -61 1 -39 -3 -47 -49 -89 -28 -26 -63 -54 -78 -63
-39 -25 -59 -50 -75 -97 -16 -47 -56 -102 -74 -102 -7 -1 -13 -5 -13 -11 0 -5
-6 -7 -14 -4 -8 3 -33 -4 -55 -16 -36 -18 -46 -19 -81 -9 -32 10 -43 9 -56 -2
-14 -12 -16 -11 -13 6 2 11 24 31 50 45 80 43 209 158 209 186 0 24 53 109 88
141 35 32 129 93 144 93 4 0 9 -8 11 -17z m1392 -33 c3 -5 -1 -10 -10 -10 -9
0 -13 5 -10 10 3 6 8 10 10 10 2 0 7 -4 10 -10z m9 -66 c10 -25 7 -104 -4
-125 -9 -15 -7 -19 6 -19 13 0 14 -3 5 -14 -6 -8 -10 -19 -9 -26 2 -7 -3 -15
-9 -17 -10 -4 -13 22 -13 106 0 102 8 135 24 95z m-1124 -35 c-7 -13 -19 -19
-32 -17 -32 5 -33 26 -1 31 15 2 32 5 36 6 4 0 3 -8 -3 -20z m5790 -79 c8 -5
11 -13 6 -17 -5 -4 -11 -2 -13 5 -3 6 -9 10 -13 7 -5 -3 -11 -1 -15 5 -8 13
15 13 35 0z m10 -99 c0 -6 -4 -13 -10 -16 -5 -3 -10 1 -10 9 0 9 5 16 10 16 6
0 10 -4 10 -9z m-6225 -9 c6 -4 18 -16 28 -28 17 -20 17 -23 -3 -68 -11 -26
-20 -58 -20 -71 0 -24 -24 -40 -43 -28 -25 15 -87 67 -87 73 0 4 11 12 24 19
13 8 36 35 51 62 27 50 32 54 50 41z m6411 -97 c13 -12 12 -17 -3 -35 -10 -11
-23 -20 -30 -20 -7 0 -13 -4 -13 -10 0 -5 -3 -9 -7 -8 -12 2 -45 -13 -76 -35
l-29 -20 13 22 c8 11 18 21 23 21 5 0 19 12 32 26 13 14 29 22 35 18 7 -4 10
1 7 12 -4 19 10 43 25 44 5 0 15 -7 23 -15z m-4839 -106 c17 -6 23 -14 19 -27
-3 -9 -8 -44 -12 -77 -7 -58 -16 -75 -41 -75 -9 0 -13 21 -13 74 0 76 10 150
18 128 2 -7 15 -18 29 -23z m-1822 -39 c14 -5 25 -16 25 -25 0 -9 9 -15 25
-15 14 0 29 -8 35 -20 6 -12 21 -20 35 -20 14 0 29 -8 35 -19 25 -48 1 -143
-40 -156 -11 -3 -28 -17 -39 -31 -10 -13 -21 -24 -24 -24 -3 0 -18 -12 -34
-26 -21 -19 -34 -24 -56 -20 -17 4 -26 2 -22 -4 9 -15 -74 -11 -120 5 -22 8
-47 15 -56 15 -9 0 -22 7 -29 15 -7 8 -20 15 -29 15 -9 0 -31 13 -48 29 -19
17 -34 24 -36 17 -2 -6 -8 -8 -12 -4 -11 10 5 48 20 48 7 0 15 6 19 13 19 41
55 92 64 90 6 -2 13 6 17 16 5 18 44 41 69 41 7 0 21 16 32 35 17 31 22 34 50
29 19 -4 35 -1 39 6 7 12 31 9 80 -10z m1735 -52 c0 -39 -4 -58 -12 -59 -10 0
-10 -2 0 -6 19 -8 4 -22 -18 -16 -24 6 -24 5 0 48 24 42 24 46 7 39 -9 -3 -13
5 -12 25 0 22 5 29 17 28 15 -1 18 -11 18 -59z m-1257 32 c20 -8 37 -17 37
-21 0 -4 15 -3 33 2 34 10 84 4 105 -14 7 -5 15 -7 19 -3 3 3 16 -1 29 -9 12
-8 33 -16 46 -19 26 -4 80 -27 88 -37 3 -3 27 -14 53 -24 26 -10 55 -27 63
-39 16 -24 19 -72 4 -81 -6 -4 -8 -10 -5 -15 3 -4 -4 -29 -15 -55 -22 -52 -26
-105 -8 -105 9 0 9 -3 0 -12 -7 -7 -12 -20 -12 -30 0 -10 -4 -18 -10 -18 -5 0
-10 -4 -10 -10 0 -12 53 -14 64 -2 4 4 11 7 14 7 4 0 22 15 41 33 19 17 37 32
41 32 4 0 25 8 46 17 22 9 46 16 55 14 9 -1 19 5 22 14 4 8 12 15 18 15 8 0 8
-4 -1 -15 -11 -13 -7 -15 26 -13 22 0 50 -3 64 -7 29 -9 96 -51 127 -80 12
-11 34 -32 50 -46 15 -14 46 -39 68 -55 22 -16 52 -44 68 -61 16 -18 33 -30
39 -27 5 3 12 -3 15 -14 2 -11 25 -30 50 -43 24 -12 49 -32 55 -43 10 -19 94
-123 109 -136 3 -3 9 -16 12 -30 4 -14 17 -36 29 -50 56 -62 137 -189 184
-285 21 -44 56 -114 79 -155 60 -112 70 -144 124 -371 28 -119 50 -166 96
-209 15 -14 42 -48 60 -76 18 -28 42 -60 53 -70 14 -13 25 -47 36 -114 9 -52
21 -111 26 -130 5 -19 15 -59 21 -87 7 -29 16 -53 20 -53 14 0 22 -327 9 -395
-7 -36 -15 -65 -19 -65 -10 0 -78 -91 -97 -129 -8 -17 -20 -31 -25 -31 -5 0
-15 -15 -23 -34 -11 -25 -26 -40 -61 -55 -26 -12 -55 -21 -64 -21 -25 0 -61
38 -68 71 -3 16 -14 34 -23 39 -10 5 -20 24 -23 42 -3 18 -7 42 -9 53 -2 11
-9 26 -15 33 -7 7 -13 30 -13 50 0 32 -19 85 -20 57 -1 -23 -20 22 -20 47 0
15 -7 34 -16 43 -11 11 -15 26 -11 49 3 19 1 38 -4 43 -5 5 -18 58 -30 118
-12 61 -24 112 -28 115 -3 3 -15 21 -25 41 -10 20 -37 47 -58 60 -22 13 -44
32 -49 42 -5 9 -14 17 -20 17 -13 0 -58 52 -59 68 0 6 -4 12 -9 12 -5 0 -11
18 -13 40 -2 24 1 40 7 40 6 0 17 16 24 36 7 20 24 52 37 72 24 34 24 48 5 97
-27 65 -40 106 -49 158 -7 33 -26 83 -47 116 -19 32 -35 63 -35 68 0 5 -9 15
-20 23 -11 8 -20 19 -20 26 0 6 -12 16 -26 22 -14 7 -22 16 -19 22 3 5 -12 21
-35 35 -22 14 -40 29 -40 34 0 5 -8 11 -17 15 -68 24 -173 131 -173 176 0 11
-4 19 -8 16 -5 -3 -21 22 -36 55 -31 68 -98 145 -117 133 -9 -5 -10 -2 -6 9 5
13 -7 23 -53 44 -33 14 -60 30 -60 35 0 4 -6 8 -13 8 -18 0 -141 79 -146 93
-2 6 -15 21 -27 34 -18 18 -24 35 -24 67 0 36 -5 47 -25 60 -20 13 -23 21 -16
34 11 21 -7 112 -23 112 -6 0 -17 9 -24 20 -7 11 -19 20 -27 20 -18 0 -20 -17
-3 -22 17 -6 2 -38 -18 -38 -10 0 -14 5 -10 15 3 8 1 15 -3 15 -5 0 -11 -7
-15 -15 -6 -17 -106 -22 -106 -5 0 6 -10 10 -22 10 -13 0 -31 11 -40 24 -27
37 -58 96 -51 96 4 0 -9 14 -27 30 -18 17 -38 30 -43 30 -5 0 -7 7 -3 15 3 10
-7 21 -32 34 -20 11 -33 20 -28 21 5 0 -1 11 -13 24 -24 25 -58 80 -67 109 -4
9 -15 17 -25 17 -14 0 -19 7 -19 30 0 22 4 28 15 24 17 -7 43 16 37 34 -2 6
-10 12 -18 12 -10 0 -13 10 -11 35 2 32 4 35 26 30 14 -4 30 0 40 9 9 8 27 16
41 19 30 5 25 6 73 -13z m-256 -76 c-3 -3 -12 -4 -19 -1 -8 3 -5 6 6 6 11 1
17 -2 13 -5z m6323 -884 c0 -5 -15 -9 -32 -9 l-33 1 30 8 c17 4 31 8 33 9 1 0
2 -3 2 -9z m-230 -74 c0 -3 -4 -8 -10 -11 -5 -3 -10 -1 -10 4 0 6 5 11 10 11
6 0 10 -2 10 -4z m125 -81 c34 -17 53 -31 43 -33 -22 -4 -105 36 -112 54 -3 8
-2 13 2 11 4 -1 34 -16 67 -32z m502 29 c-3 -3 -12 -4 -19 -1 -8 3 -5 6 6 6
11 1 17 -2 13 -5z m388 -364 c3 -5 20 -7 38 -5 18 3 25 2 17 -1 -8 -4 -23 -13
-32 -22 -15 -12 -20 -13 -33 -2 -13 11 -16 11 -13 -1 2 -8 -3 -13 -11 -11 -8
2 -26 0 -40 -4 l-26 -8 30 -7 c27 -6 27 -6 -7 -4 -38 3 -73 -19 -46 -28 7 -2
6 -3 -3 -2 -9 1 -24 -2 -33 -7 -10 -6 -16 -5 -16 1 0 5 -9 7 -20 4 -11 -3 -20
-9 -20 -14 0 -5 -5 -9 -11 -9 -19 0 2 20 44 42 23 11 55 31 70 44 16 13 39 24
52 24 13 0 27 5 30 10 8 13 22 13 30 0z m-95 -130 c0 -5 -2 -10 -4 -10 -3 0
-8 5 -11 10 -3 6 -1 10 4 10 6 0 11 -4 11 -10z m-90 -15 c0 -9 6 -12 18 -9 13
4 12 2 -3 -7 -27 -17 -28 -17 -30 9 -1 12 2 22 7 22 4 0 8 -7 8 -15z m-30 -15
c0 -5 -2 -10 -4 -10 -3 0 -8 5 -11 10 -3 6 -1 10 4 10 6 0 11 -4 11 -10z
m-8402 -20 c7 -12 8 -20 2 -20 -5 0 -10 -4 -10 -10 0 -5 7 -10 15 -10 30 0 14
-18 -18 -22 -33 -3 -57 10 -57 32 0 12 36 50 48 50 4 0 13 -9 20 -20z m8272
-60 c-8 -5 -19 -10 -25 -10 -5 0 -3 5 5 10 8 5 20 10 25 10 6 0 3 -5 -5 -10z
m-334 -169 c-3 -5 4 -12 17 -16 16 -5 18 -8 7 -12 -8 -3 -33 -14 -55 -23 -86
-38 -118 -50 -123 -45 -5 5 42 25 59 25 5 0 9 4 9 9 0 5 11 12 25 15 14 4 29
14 32 24 4 9 11 20 17 24 15 10 18 10 12 -1z m-81 -11 c8 -13 -5 -13 -25 0
-13 8 -13 10 2 10 9 0 20 -4 23 -10z m-7842 -91 c54 -38 75 -65 42 -53 -9 4
-15 0 -15 -9 0 -8 7 -14 16 -13 9 0 19 -4 21 -10 2 -7 -6 -10 -21 -9 -17 2
-23 -1 -19 -10 2 -8 12 -11 21 -8 14 5 14 2 -3 -18 -65 -80 -96 -106 -190
-159 -31 -18 -34 -18 -52 -1 -14 13 -25 16 -42 10 -13 -5 -30 -5 -39 0 -10 5
-37 6 -60 1 -33 -6 -45 -4 -49 6 -3 8 -9 11 -14 8 -5 -3 -7 -10 -4 -15 3 -5 0
-6 -8 -3 -8 3 -18 -6 -26 -22 l-12 -26 38 6 c27 4 32 3 18 -4 -11 -5 -29 -9
-41 -9 -23 -1 -66 -41 -44 -41 7 0 11 -2 8 -5 -3 -3 -15 -2 -26 2 -19 8 -15
14 51 83 48 51 92 86 132 105 71 35 165 126 223 213 20 30 30 28 95 -19z
m7757 -9 c0 -5 -4 -10 -10 -10 -5 0 -10 5 -10 10 0 6 5 10 10 10 6 0 10 -4 10
-10z m682 -235 c3 3 21 -10 41 -29 26 -25 32 -36 22 -39 -7 -3 -19 1 -25 9
-15 17 -40 19 -40 2 0 -7 -7 -5 -18 5 -12 11 -22 13 -34 6 -13 -7 -22 -4 -39
13 -21 23 -21 23 -10 1 6 -12 8 -30 5 -40 -5 -15 -4 -15 5 -3 8 12 11 12 11 1
0 -7 6 -11 14 -8 7 3 19 0 25 -6 8 -8 11 -8 11 1 0 8 6 6 18 -4 22 -21 112
-77 185 -116 55 -30 72 -48 43 -48 -7 0 -19 7 -26 15 -7 8 -17 15 -23 15 -14
0 -101 43 -108 54 -4 5 -12 5 -18 2 -6 -4 -11 -3 -11 2 0 12 -100 66 -100 55
0 -5 -5 -1 -10 7 -8 13 -10 13 -10 0 0 -10 -5 -8 -15 7 -8 12 -12 28 -9 36 3
9 -1 26 -10 39 l-16 24 55 -2 c31 -1 55 3 55 8 0 7 5 6 13 -1 8 -6 16 -9 19
-6z m-162 -15 c0 9 6 8 20 -5 11 -10 20 -25 20 -34 -1 -13 -5 -11 -19 6 -10
12 -21 20 -24 17 -3 -3 -10 5 -17 18 -11 22 -10 22 4 4 11 -13 16 -15 16 -6z
m-8573 -36 c-3 -3 -12 -4 -19 -1 -8 3 -5 6 6 6 11 1 17 -2 13 -5z m4596 -141
c-7 -2 -19 -2 -25 0 -7 3 -2 5 12 5 14 0 19 -2 13 -5z m-2 -138 c-1 -15 -24
-12 -29 3 -3 9 2 13 12 10 10 -1 17 -7 17 -13z m4179 -6 c17 -6 7 -7 -34 -4
-32 2 -61 7 -64 10 -8 8 70 4 98 -6z m273 -51 c31 -11 57 -24 57 -28 0 -4 -10
-12 -22 -18 -22 -11 -22 -11 3 -6 18 4 28 1 32 -10 4 -9 1 -16 -6 -16 -7 0 -3
-8 8 -18 11 -9 28 -27 38 -38 17 -21 17 -21 -8 -18 -15 1 -42 10 -61 19 -19 9
-38 13 -43 10 -5 -3 -12 -1 -16 4 -3 6 -12 8 -20 4 -11 -4 -15 2 -14 18 0 23
1 23 9 4 7 -17 9 -17 9 -3 1 19 -39 61 -48 52 -3 -3 1 -11 9 -17 9 -7 14 -20
12 -29 -4 -22 -22 -24 -22 -3 0 8 -7 15 -15 15 -9 0 -18 7 -21 15 -4 8 -19 29
-35 46 -16 17 -29 35 -29 39 0 5 -9 12 -20 15 -11 4 -18 10 -15 15 6 9 130
-21 218 -52z m17 -201 c0 14 51 1 87 -22 14 -9 32 -14 41 -10 9 3 13 3 9 -1
-4 -4 9 -20 28 -37 44 -37 46 -57 3 -25 -18 13 -46 30 -63 38 -16 8 -38 21
-48 29 -10 9 -28 16 -40 16 -27 0 -47 12 -47 28 0 7 7 3 15 -7 8 -11 15 -15
15 -9z m-9260 -27 c12 -8 9 -10 -12 -10 -15 0 -30 5 -33 10 -8 13 25 13 45 0z
m735 0 c3 -5 1 -10 -4 -10 -6 0 -11 5 -11 10 0 6 2 10 4 10 3 0 8 -4 11 -10z
m-485 -150 c-8 -5 -22 -9 -30 -9 -10 0 -8 3 5 9 27 12 43 12 25 0z m1716 -2
c4 -7 4 -10 -1 -6 -4 4 -13 4 -19 -1 -17 -12 -106 -35 -113 -28 -8 9 76 47
104 47 12 0 25 -6 29 -12z m-1876 -72 c0 -3 -4 -8 -10 -11 -5 -3 -10 -1 -10 4
0 6 5 11 10 11 6 0 10 -2 10 -4z m-170 -140 c0 -3 -4 -8 -10 -11 -5 -3 -10 -1
-10 4 0 6 5 11 10 11 6 0 10 -2 10 -4z m-20 -50 c0 -8 -11 -13 -25 -13 -25 0
-25 0 -9 18 18 19 34 17 34 -5z m9430 -142 c0 -2 -9 -4 -21 -4 -11 0 -18 4
-14 10 5 8 35 3 35 -6z m100 -149 c0 -11 -5 -10 -20 5 -11 11 -20 22 -20 25 0
3 9 1 20 -5 11 -6 20 -17 20 -25z"/>
<path d="M3270 14544 c0 -8 5 -12 10 -9 6 3 10 10 10 16 0 5 -4 9 -10 9 -5 0
-10 -7 -10 -16z"/>
<path d="M5051 14494 c0 -11 3 -14 6 -6 3 7 2 16 -1 19 -3 4 -6 -2 -5 -13z"/>
<path d="M4250 13995 c-7 -9 -10 -18 -6 -22 3 -3 6 -1 6 5 0 7 7 12 15 12 8 0
15 5 15 10 0 15 -16 12 -30 -5z"/>
<path d="M4200 13926 c0 -2 7 -9 15 -16 9 -7 15 -8 15 -2 0 5 -7 12 -15 16 -8
3 -15 4 -15 2z"/>
<path d="M4150 13810 c-8 -5 -11 -12 -7 -16 4 -4 13 -2 19 4 15 15 7 24 -12
12z"/>
<path d="M4195 13650 c-3 -5 -1 -10 4 -10 6 0 11 5 11 10 0 6 -2 10 -4 10 -3
0 -8 -4 -11 -10z"/>
<path d="M4080 13605 c0 -9 6 -12 15 -9 8 4 15 1 15 -5 0 -6 5 -11 10 -11 6 0
5 8 -2 20 -15 23 -38 27 -38 5z"/>
<path d="M4085 13559 c-9 -14 -2 -20 14 -10 8 6 9 11 3 15 -6 3 -14 1 -17 -5z"/>
<path d="M4345 13350 c3 -5 12 -7 20 -3 21 7 19 13 -6 13 -11 0 -18 -4 -14
-10z"/>
<path d="M4278 13313 c7 -3 16 -2 19 1 4 3 -2 6 -13 5 -11 0 -14 -3 -6 -6z"/>
<path d="M4567 13233 c-4 -3 -15 -7 -25 -8 -42 -5 -139 -65 -104 -65 5 0 15 7
22 15 7 8 16 12 21 9 5 -3 9 0 9 6 0 6 5 8 10 5 6 -3 10 -1 10 4 0 6 10 11 23
11 12 1 36 7 52 15 25 11 26 14 9 14 -11 1 -24 -2 -27 -6z"/>
<path d="M4080 13140 c0 -5 5 -10 10 -10 6 0 10 5 10 10 0 6 -4 10 -10 10 -5
0 -10 -4 -10 -10z"/>
<path d="M4427 13104 c-4 -4 -7 -14 -7 -23 0 -11 3 -12 11 -4 6 6 10 16 7 23
-2 6 -7 8 -11 4z"/>
<path d="M4492 13066 c-24 -28 -17 -34 12 -13 11 8 17 19 15 26 -3 8 -13 3
-27 -13z"/>
<path d="M5380 13371 c0 -5 7 -12 16 -15 24 -9 27 -7 10 9 -17 17 -26 19 -26
6z"/>
<path d="M5780 13560 c0 -5 5 -10 10 -10 6 0 10 5 10 10 0 6 -4 10 -10 10 -5
0 -10 -4 -10 -10z"/>
<path d="M4035 10959 c-11 -17 1 -21 15 -4 8 9 8 15 2 15 -6 0 -14 -5 -17 -11z"/>
<path d="M3752 11110 c0 -14 2 -19 5 -12 2 6 2 18 0 25 -3 6 -5 1 -5 -13z"/>
<path d="M600 8689 c0 -5 5 -7 10 -4 6 3 10 8 10 11 0 2 -4 4 -10 4 -5 0 -10
-5 -10 -11z"/>
<path d="M610 8659 c0 -5 5 -7 10 -4 6 3 10 8 10 11 0 2 -4 4 -10 4 -5 0 -10
-5 -10 -11z"/>
<path d="M565 8640 c3 -5 11 -10 16 -10 6 0 7 5 4 10 -3 6 -11 10 -16 10 -6 0
-7 -4 -4 -10z"/>
<path d="M545 8617 c4 -10 1 -15 -11 -14 -9 1 -19 -5 -21 -13 -3 -11 -2 -12 4
-3 5 7 19 11 31 8 26 -5 29 7 7 25 -13 11 -14 10 -10 -3z"/>
<path d="M540 8570 c-9 -6 -10 -10 -3 -10 6 0 15 5 18 10 8 12 4 12 -15 0z"/>
<path d="M420 8430 c0 -5 5 -10 10 -10 6 0 10 5 10 10 0 6 -4 10 -10 10 -5 0
-10 -4 -10 -10z"/>
<path d="M9325 8070 c-3 -4 2 -11 11 -14 22 -8 34 -7 34 3 0 12 -39 21 -45 11z"/>
<path d="M9384 8048 c-4 -7 -4 -10 1 -6 4 4 16 3 26 -3 11 -6 19 -6 19 0 0 5
-7 12 -16 15 -21 8 -22 8 -30 -6z"/>
<path d="M9415 8000 c3 -5 8 -10 11 -10 2 0 4 5 4 10 0 6 -5 10 -11 10 -5 0
-7 -4 -4 -10z"/>
<path d="M1263 15959 c7 -50 13 -58 63 -71 93 -24 88 -25 159 46 l66 66 -147
0 -147 0 6 -41z"/>
<path d="M2260 15996 c0 -2 6 -19 14 -37 14 -34 15 -76 2 -117 -7 -21 -5 -22
76 -22 93 0 116 11 138 68 7 17 19 32 26 32 8 0 14 5 14 11 0 6 -8 8 -19 4
-23 -7 -107 30 -115 51 -4 10 -23 14 -71 14 -36 0 -65 -2 -65 -4z"/>
<path d="M3644 15963 c3 -21 6 -53 6 -72 0 -28 3 -32 18 -26 40 17 103 22 120
9 40 -31 53 -20 81 67 19 60 21 59 -110 59 l-122 0 7 -37z"/>
<path d="M0 15790 c0 -49 4 -70 13 -70 25 0 34 16 36 66 2 45 -1 52 -24 62
l-25 12 0 -70z"/>
<path d="M2810 15760 c-17 -10 0 -100 20 -100 4 0 24 7 45 15 l37 16 -26 26
c-14 14 -26 29 -26 33 0 11 -36 19 -50 10z"/>
<path d="M1932 15218 c-19 -19 -14 -30 11 -26 12 2 22 9 22 17 0 19 -18 24
-33 9z"/>
<path d="M7664 14599 c-3 -6 -1 -16 5 -22 8 -8 11 -8 11 2 0 7 5 9 13 5 8 -5
8 -2 -2 9 -16 20 -18 20 -27 6z"/>
<path d="M7688 14543 c53 -109 107 -194 127 -198 11 -2 60 -6 110 -9 53 -2 91
-8 93 -15 2 -6 13 -11 25 -10 12 0 16 3 10 6 -10 3 -10 10 -2 24 9 17 6 21
-20 30 -17 6 -31 18 -31 26 0 20 -76 94 -113 111 -15 6 -40 12 -55 12 -15 1
-38 7 -51 14 -14 8 -30 12 -37 9 -7 -2 -15 0 -19 6 -3 6 -15 11 -26 11 -15 0
-17 -4 -11 -17z"/>
<path d="M6770 14280 c0 -5 5 -10 10 -10 6 0 10 5 10 10 0 6 -4 10 -10 10 -5
0 -10 -4 -10 -10z"/>
<path d="M0 13895 c1 -46 2 -49 15 -31 15 20 12 51 -6 71 -5 5 -9 -11 -9 -40z"/>
<path d="M7880 13925 c-15 -18 -8 -64 16 -99 l16 -25 34 22 c41 27 45 63 11
95 -27 26 -59 28 -77 7z"/>
<path d="M6582 13100 c0 -14 2 -19 5 -12 2 6 2 18 0 25 -3 6 -5 1 -5 -13z"/>
<path d="M6535 12799 c-4 -6 -5 -12 -2 -15 2 -3 7 2 10 11 7 17 1 20 -8 4z"/>
<path d="M211 12354 c-21 -27 -20 -44 3 -44 17 0 49 47 41 60 -10 16 -22 12
-44 -16z"/>
<path d="M6415 12370 c3 -5 8 -10 11 -10 2 0 4 5 4 10 0 6 -5 10 -11 10 -5 0
-7 -4 -4 -10z"/>
<path d="M2815 12121 c-6 -11 9 -23 19 -14 9 9 7 23 -3 23 -6 0 -12 -4 -16 -9z"/>
<path d="M3053 12122 c-9 -6 -8 -19 4 -55 8 -26 19 -47 23 -47 5 0 18 12 29
26 36 45 -8 106 -56 76z"/>
<path d="M224 12026 c-13 -34 1 -51 49 -60 26 -5 47 -13 47 -18 0 -5 4 -6 10
-3 25 15 0 77 -27 68 -6 -2 -26 3 -43 12 -26 14 -31 14 -36 1z"/>
<path d="M8523 11768 c-6 -7 -16 -49 -23 -93 -12 -79 -36 -155 -52 -165 -12
-9 35 -68 64 -81 45 -19 56 -7 63 68 3 37 10 97 14 133 10 81 -5 144 -35 148
-12 2 -25 -3 -31 -10z"/>
<path d="M7465 11718 c-16 -48 -2 -78 36 -78 35 0 35 1 7 50 -24 41 -36 49
-43 28z"/>
<path d="M6890 11712 c0 -12 106 -72 127 -72 12 1 -37 38 -79 60 -41 22 -48
24 -48 12z"/>
<path d="M3740 11630 c-13 -8 -12 -10 3 -10 9 0 17 5 17 10 0 12 -1 12 -20 0z"/>
<path d="M7798 11573 c7 -3 16 -2 19 1 4 3 -2 6 -13 5 -11 0 -14 -3 -6 -6z"/>
<path d="M8064 11536 c37 -20 73 -35 79 -33 16 5 -77 56 -115 64 -26 4 -17 -3
36 -31z"/>
<path d="M8248 11523 c7 -3 16 -2 19 1 4 3 -2 6 -13 5 -11 0 -14 -3 -6 -6z"/>
<path d="M2250 11365 c-17 -21 -8 -28 15 -11 11 8 14 15 8 19 -6 4 -16 0 -23
-8z"/>
<path d="M10645 10856 c-8 -13 -13 -32 -9 -42 19 -59 28 -74 44 -74 23 0 72
58 63 73 -40 71 -71 84 -98 43z"/>
<path d="M10568 9307 c-7 -34 1 -47 27 -47 27 0 36 16 24 48 -11 29 -45 29
-51 -1z"/>
<path d="M10 9100 c-13 -8 -13 -10 2 -10 9 0 20 5 23 10 8 13 -5 13 -25 0z"/>
<path d="M275 8994 c-9 -20 -14 -39 -10 -42 9 -9 55 45 55 64 0 27 -28 14 -45
-22z"/>
<path d="M1463 7953 c9 -2 23 -2 30 0 6 3 -1 5 -18 5 -16 0 -22 -2 -12 -5z"/>
<path d="M1041 7932 c0 -13 -9 -31 -18 -40 -15 -16 -16 -15 -9 13 10 42 -13
18 -30 -30 -11 -34 -3 -52 10 -19 3 8 10 13 15 9 15 -9 43 41 38 67 l-4 23 -2
-23z"/>
<path d="M85 7880 c3 -5 13 -10 21 -10 8 0 14 5 14 10 0 6 -9 10 -21 10 -11 0
-17 -4 -14 -10z"/>
<path d="M99 7761 c11 -7 9 -11 -9 -21 -20 -10 -22 -10 -17 3 4 11 0 13 -14
10 -10 -3 -19 -9 -19 -14 0 -5 -7 -9 -15 -9 -18 0 -20 16 -2 23 7 3 5 6 -5 6
-24 1 -23 -25 2 -46 14 -13 16 -19 7 -25 -8 -5 -3 -8 13 -9 l25 0 -23 -12
c-19 -8 -25 -8 -33 4 -5 8 -9 9 -9 4 0 -6 6 -17 12 -24 10 -11 11 -14 1 -18
-16 -6 -17 -43 -1 -43 6 0 9 3 5 6 -8 8 18 34 33 34 15 0 30 43 19 55 -17 18
-9 27 21 23 23 -4 36 2 62 29 34 35 34 38 -6 23 -17 -6 -26 -6 -26 0 0 6 -8
10 -17 10 -14 0 -15 -2 -4 -9z"/>
<path d="M7470 5907 c-55 -11 -102 -49 -113 -91 -12 -47 -14 -159 -4 -173 5
-7 7 -22 4 -33 -3 -12 -1 -18 5 -14 7 5 9 -2 4 -21 -9 -36 12 -135 28 -135 7
0 19 -18 26 -40 7 -22 16 -40 20 -40 16 0 32 -94 34 -187 1 -89 -17 -205 -43
-278 -4 -11 -4 -36 0 -55 4 -20 4 -36 -2 -38 -5 -2 -9 -21 -9 -43 0 -21 -4
-39 -10 -39 -5 0 -10 -17 -10 -37 0 -53 -10 -83 -26 -83 -17 0 -20 -116 -4
-122 6 -2 2 -20 -10 -45 -12 -26 -20 -62 -20 -95 0 -29 -4 -98 -10 -153 -5
-55 -15 -209 -21 -342 -7 -134 -16 -243 -21 -243 -4 0 -8 -18 -8 -40 0 -22 -4
-40 -10 -40 -5 0 -10 -18 -10 -40 0 -23 5 -40 11 -40 8 0 10 -29 5 -97 -3 -54
-10 -192 -16 -308 -10 -233 -18 -307 -32 -316 -7 -4 -6 -14 0 -26 6 -11 8 -44
5 -76 -6 -54 -5 -57 17 -57 22 0 22 -2 15 -77 -8 -83 -26 -145 -50 -169 -8 -9
-15 -26 -15 -38 0 -12 -9 -41 -20 -64 -11 -22 -20 -50 -20 -61 0 -25 -20 -71
-32 -71 -4 0 -8 -26 -8 -59 0 -102 -12 -181 -26 -181 -10 0 -14 -13 -14 -40 0
-29 -4 -40 -15 -40 -11 0 -15 -11 -15 -40 0 -22 5 -40 10 -40 15 0 12 -78 -2
-82 -10 -4 -13 -44 -13 -158 0 -114 3 -154 13 -157 17 -6 15 -23 -3 -23 -10 0
-15 -10 -15 -30 0 -23 -4 -30 -20 -30 -17 0 -20 -7 -20 -40 0 -22 -4 -40 -9
-40 -5 0 -15 -24 -21 -54 -6 -30 -20 -62 -31 -72 -11 -10 -17 -24 -14 -31 2
-8 -6 -25 -20 -39 -14 -14 -25 -28 -25 -31 0 -17 -75 -101 -86 -96 -13 5 -58
-70 -48 -79 2 -3 -8 -13 -23 -23 -47 -31 -103 -89 -103 -108 0 -10 -18 -35
-40 -56 -22 -20 -40 -45 -40 -54 0 -10 -8 -17 -20 -17 -12 0 -22 -9 -25 -23
-8 -31 -158 -149 -179 -141 -11 4 -16 1 -16 -11 0 -9 -11 -26 -24 -36 -13 -10
-26 -30 -30 -43 -4 -18 -11 -23 -25 -19 -13 3 -23 -2 -30 -16 -7 -12 -21 -21
-31 -21 -11 0 -20 -6 -20 -13 0 -7 -10 -23 -23 -37 -36 -40 -67 -82 -67 -91 0
-5 402 -9 904 -9 810 0 904 2 910 16 3 8 10 12 16 9 15 -10 18 9 23 151 4 118
7 134 26 155 12 13 24 33 27 46 3 12 21 29 39 38 19 8 37 20 40 25 8 12 59 13
83 1 9 -4 33 -16 53 -25 20 -10 42 -29 48 -42 6 -13 15 -24 20 -24 5 0 13 -21
17 -47 4 -26 16 -63 27 -82 21 -37 114 -131 129 -131 13 0 68 -62 68 -77 0
-10 133 -13 670 -13 l670 0 0 68 c-1 122 -81 663 -104 701 -2 3 -12 51 -21
106 -29 181 -75 399 -100 480 -25 85 -50 183 -96 385 -31 136 -49 206 -86 319
-13 40 -40 135 -59 210 -63 239 -142 508 -154 526 -4 6 -11 26 -15 45 -4 19
-16 55 -27 80 -11 25 -24 54 -29 65 -5 11 -22 61 -38 110 -16 50 -39 117 -50
150 -11 33 -40 123 -65 200 -24 78 -69 192 -99 255 -30 63 -63 138 -72 165
-24 73 -63 174 -85 220 -10 22 -39 83 -64 136 -25 53 -46 100 -46 106 0 5 -10
30 -23 54 -12 24 -36 76 -52 114 -92 224 -344 673 -449 801 -14 18 -26 35 -26
39 0 3 -13 25 -28 48 -16 23 -48 80 -71 126 -63 124 -130 224 -203 302 -61 66
-204 113 -288 96z m-408 -4509 c-10 -22 -11 -21 -11 12 -1 26 2 31 11 22 8 -8
8 -17 0 -34z"/>
</g>
</svg>
